<?xml version="1.0" standalone="no"?>
<!DOCTYPE svg PUBLIC "-//W3C//DTD SVG 20010904//EN"
 "http://www.w3.org/TR/2001/REC-SVG-20010904/DTD/svg10.dtd">
<svg version="1.0" xmlns="http://www.w3.org/2000/svg"
 width="112" height="112" viewBox="0 0 512.000000 512.000000"
 preserveAspectRatio="xMidYMid meet">
<metadata>
Created by potrace 1.16, written by Peter Selinger 2001-2019
</metadata>
<g transform="translate(0.000000,512.000000) scale(0.100000,-0.100000)"
fill="#00305F" stroke="none">
<path d="M2486 5094 l-26 -27 0 -377 0 -377 26 -27 c38 -37 110 -37 148 0 l26
27 0 377 0 377 -26 27 c-21 21 -36 26 -74 26 -38 0 -53 -5 -74 -26z"/>
<path d="M589 4331 c-31 -32 -39 -83 -18 -124 16 -31 429 -445 461 -463 99
-52 196 45 144 144 -18 32 -432 445 -463 461 -41 21 -92 13 -124 -18z"/>
<path d="M4405 4349 c-31 -17 -445 -431 -461 -461 -38 -72 6 -158 81 -158 20
0 46 5 58 11 31 16 445 429 463 461 39 73 -6 158 -83 158 -21 0 -47 -6 -58
-11z"/>
<path d="M2335 3954 c-284 -40 -491 -98 -725 -204 -414 -187 -844 -524 -1178
-923 -199 -238 -207 -264 -119 -383 88 -120 249 -303 373 -424 468 -456 961
-729 1503 -833 101 -19 149 -22 371 -22 266 0 328 7 525 56 383 95 767 298
1127 597 128 106 367 345 476 475 199 238 207 264 119 383 -88 120 -249 303
-373 424 -475 462 -966 733 -1519 836 -86 16 -503 29 -580 18z m490 -220 c509
-70 1022 -350 1480 -809 152 -151 315 -341 315 -365 0 -46 -371 -437 -560
-591 -715 -581 -1445 -742 -2178 -480 -373 133 -735 373 -1072 711 -148 147
-310 336 -310 360 0 25 164 215 315 365 335 335 696 574 1067 706 322 115 618
147 943 103z"/>
<path d="M2331 3435 c-51 -14 -105 -32 -118 -40 -48 -32 -57 -107 -18 -153 35
-42 68 -45 171 -16 172 47 361 28 517 -53 99 -51 239 -191 290 -290 103 -198
103 -449 2 -642 -179 -340 -597 -471 -938 -294 -99 51 -239 191 -290 290 -61
118 -79 203 -75 371 l3 144 -33 29 c-37 33 -77 37 -122 14 -48 -25 -54 -47
-58 -210 -3 -134 -1 -160 22 -247 83 -324 331 -572 653 -654 135 -34 311 -34
446 0 322 82 571 331 653 653 34 135 34 311 0 446 -82 322 -331 571 -653 653
-135 34 -317 34 -452 -1z"/>
<path d="M1886 3134 c-21 -21 -26 -36 -26 -74 0 -38 5 -53 26 -74 21 -21 36
-26 74 -26 38 0 53 5 74 26 21 21 26 36 26 74 0 38 -5 53 -26 74 -21 21 -36
26 -74 26 -38 0 -53 -5 -74 -26z"/>
<path d="M2423 2941 c-105 -39 -180 -107 -231 -211 -25 -50 -27 -65 -27 -170
0 -107 2 -119 29 -175 38 -77 114 -153 191 -191 56 -27 68 -29 175 -29 107 0
119 2 175 29 77 38 153 114 191 191 27 56 29 68 29 175 0 107 -2 119 -29 175
-38 77 -114 153 -191 190 -52 26 -73 30 -160 33 -79 2 -111 -2 -152 -17z m225
-210 c67 -34 102 -93 102 -171 0 -111 -79 -190 -190 -190 -111 0 -190 79 -190
190 0 111 77 189 188 190 33 0 67 -7 90 -19z"/>
<path d="M1035 1279 c-31 -17 -445 -431 -461 -461 -38 -72 6 -158 81 -158 20
0 46 5 58 11 31 16 445 429 463 461 39 73 -6 158 -83 158 -21 0 -47 -6 -58
-11z"/>
<path d="M3959 1261 c-31 -32 -39 -83 -18 -124 16 -31 429 -445 461 -463 72
-38 158 6 158 81 0 20 -6 48 -14 63 -18 32 -432 445 -463 461 -41 21 -92 13
-124 -18z"/>
<path d="M2486 834 l-26 -27 0 -377 0 -377 26 -27 c38 -37 110 -37 148 0 l26
27 0 377 0 377 -26 27 c-21 21 -36 26 -74 26 -38 0 -53 -5 -74 -26z"/>
</g>
</svg>
