<svg width="27" height="28" viewBox="0 0 27 28" fill="none" xmlns="http://www.w3.org/2000/svg">
<path fill-rule="evenodd" clip-rule="evenodd" d="M18.8313 0.751831C17.4099 0.685181 16.958 0.671875 13.3352 0.671875C9.71265 0.671875 9.26074 0.689209 7.83936 0.751831C6.41797 0.818481 5.45264 1.04126 4.60205 1.37183C3.71191 1.70618 2.90552 2.23083 2.23926 2.90918C1.5603 3.57495 1.03564 4.38147 0.701904 5.27185C0.371338 6.12256 0.148682 7.08789 0.0820312 8.50916C0.0585938 9.0105 0.041748 9.39124 0.0297852 9.83289C0.00756836 10.6437 0.00195312 11.6602 0.00195312 14.0052C0.00195312 17.6279 0.0192871 18.0798 0.0820312 19.5012C0.148682 20.9213 0.371338 21.8892 0.701904 22.7385C1.03662 23.6285 1.56128 24.4348 2.23926 25.1012C2.90527 25.7798 3.71167 26.3046 4.60205 26.6385C5.45264 26.9679 6.41919 27.1919 7.83936 27.2585C9.26074 27.3252 9.71265 27.3385 13.3352 27.3385C16.958 27.3385 17.4099 27.3212 18.8313 27.2585C20.2512 27.1919 21.2192 26.9679 22.0686 26.6385C22.9583 26.3036 23.7646 25.7789 24.4314 25.1012C25.1101 24.4354 25.6348 23.6289 25.9685 22.7385C26.2979 21.8878 26.522 20.9213 26.5886 19.5012C26.6553 18.0798 26.6687 17.6279 26.6687 14.0052C26.6687 10.3826 26.6514 9.93054 26.5886 8.50916C26.522 7.08923 26.2979 6.12122 25.9685 5.27185C25.6338 4.38196 25.1094 3.57568 24.4314 2.90918C23.6899 2.16919 22.9487 1.71057 22.0686 1.37183C21.218 1.04126 20.2512 0.818481 18.8313 0.751831ZM5.52473 14.19L8.8554 15.2287L8.8714 15.2194L10.0314 19.0474C10.1821 19.4607 10.3874 19.5354 10.6367 19.5007C10.8795 19.4684 11.011 19.3411 11.1668 19.1902C11.1718 19.1853 11.1769 19.1803 11.1821 19.1754L12.7674 17.6447L16.1687 20.162C16.7887 20.5047 17.2354 20.3274 17.3901 19.5847L19.5994 9.15804C19.8434 8.18604 19.4167 7.79804 18.6634 8.10471L5.68607 13.118C4.80073 13.474 4.80473 13.97 5.52473 14.19Z" fill="#00305F"/>
</svg>
