<svg width="28" height="28" viewBox="0 0 28 28" fill="none" xmlns="http://www.w3.org/2000/svg">
<path fill-rule="evenodd" clip-rule="evenodd" d="M19.4954 0.744062C18.074 0.677396 17.622 0.664062 13.9993 0.664062C10.3767 0.664062 9.92468 0.681396 8.50335 0.744062C7.08202 0.810729 6.11668 1.0334 5.26602 1.36406C4.37592 1.69837 3.56958 2.22304 2.90335 2.9014C2.22442 3.56716 1.69966 4.37363 1.36602 5.26406C1.03535 6.11473 0.812682 7.08006 0.746015 8.5014C0.679348 9.92273 0.666016 10.3747 0.666016 13.9974C0.666016 17.6201 0.683348 18.0721 0.746015 19.4934C0.812682 20.9134 1.03535 21.8814 1.36602 22.7307C1.70059 23.6207 2.22522 24.427 2.90335 25.0934C3.56938 25.772 4.37579 26.2967 5.26602 26.6307C6.11668 26.9601 7.08335 27.1841 8.50335 27.2507C9.92468 27.3174 10.3767 27.3307 13.9993 27.3307C17.622 27.3307 18.074 27.3134 19.4954 27.2507C20.9154 27.1841 21.8833 26.9601 22.7327 26.6307C23.6224 26.2957 24.4286 25.7712 25.0953 25.0934C25.7742 24.4276 26.2989 23.6211 26.6327 22.7307C26.962 21.8801 27.186 20.9134 27.2527 19.4934C27.3194 18.0721 27.3327 17.6201 27.3327 13.9974C27.3327 10.3747 27.3154 9.92273 27.2527 8.5014C27.186 7.0814 26.962 6.1134 26.6327 5.26406C26.298 4.37418 25.7733 3.56792 25.0953 2.9014C24.354 2.1614 23.6127 1.70273 22.7327 1.36406C21.882 1.0334 20.9154 0.810729 19.4954 0.744062ZM6.00195 9.21406C6.00195 8.92962 6.08769 8.66406 6.5956 8.66406H8.35833C8.79825 8.66406 8.96754 8.872 9.13684 9.4224C9.91938 12.2185 11.0874 14.353 11.6807 14.353C11.9006 14.353 12.0009 14.2398 12.0009 13.6141V11.0391C11.959 10.2185 11.715 9.86007 11.5343 9.59462C11.4222 9.4299 11.3344 9.30097 11.3344 9.11962C11.3344 8.89064 11.4764 8.66406 11.7484 8.66406H14.8468C15.2201 8.66406 15.3337 8.89277 15.3337 9.38628V13.0724C15.3337 13.4905 15.633 13.6418 15.7503 13.6418C15.7552 13.6418 15.7602 13.6418 15.7651 13.6419C15.9796 13.6421 16.186 13.6423 16.5835 13.1974C17.838 11.6216 18.9243 9.23351 18.9243 9.23351C19.0429 8.94764 19.2472 8.66406 19.6871 8.66406H21.4316C21.8222 8.66406 21.9886 8.85108 21.9993 9.10851C22.0033 9.19668 21.9883 9.29764 21.9576 9.40573C21.7719 10.3662 20.1359 12.9217 19.6409 13.6949C19.5495 13.8376 19.497 13.9196 19.4997 13.9196C19.4024 14.0946 19.3384 14.2221 19.333 14.353C19.3277 14.4781 19.3756 14.6083 19.5023 14.7946C19.6876 15.0776 20.0915 15.6017 20.5021 16.1307C21.242 17.085 21.8335 18.085 21.9628 18.4946C21.9908 18.6056 22.0032 18.7078 22.0019 18.7974C21.9925 19.1501 21.7588 19.3307 21.3535 19.3307H19.6064C19.147 19.3307 18.906 18.9936 18.4148 18.3063C18.1991 18.0046 17.9352 17.6353 17.5833 17.1974C16.5835 15.953 16.0674 15.7752 15.8128 15.7752C15.4569 15.7752 15.3337 15.8688 15.3337 16.4391V18.553C15.3337 19.0266 15.218 19.3307 14.0995 19.3307C12.2532 19.3307 10.1672 17.9988 8.58485 15.6863C6.40122 12.4991 6.00195 9.72748 6.00195 9.21406Z" fill="#00305F"/>
</svg>
