<svg width="28" height="28" viewBox="0 0 28 28" fill="none" xmlns="http://www.w3.org/2000/svg">
<path fill-rule="evenodd" clip-rule="evenodd" d="M0.666016 13.9233C0.666219 10.3695 0.67981 9.91276 0.746012 8.50146C0.812663 7.08008 1.03536 6.11475 1.36601 5.264C1.69967 4.3737 2.22441 3.56722 2.90336 2.90137C3.56958 2.22298 4.37594 1.69841 5.26603 1.3641C6.1167 1.03337 7.08203 0.81071 8.50334 0.744141C9.83586 0.685221 10.3164 0.666341 13.3562 0.664225C13.5374 0.664225 13.7276 0.664062 13.9277 0.664062C13.9514 0.664062 13.9753 0.664062 13.9993 0.664062C14.0242 0.664062 14.0489 0.664062 14.0734 0.664062C17.6283 0.664062 18.0837 0.677897 19.4954 0.744141C20.9154 0.81071 21.882 1.03337 22.7327 1.3641C23.6127 1.7028 24.354 2.16146 25.0953 2.90137C25.7734 3.56787 26.298 4.37419 26.6327 5.264C26.962 6.11344 27.186 7.08138 27.2527 8.50146C27.3114 9.83382 27.3304 10.3145 27.3325 13.3543C27.3326 13.5355 27.3327 13.7256 27.3327 13.9256C27.3327 13.9494 27.3327 13.9733 27.3327 13.9974C27.3327 14.0223 27.3327 14.0469 27.3327 14.0715C27.3325 17.6263 27.3189 18.0819 27.2527 19.4933C27.186 20.9134 26.962 21.88 26.6327 22.7308C26.2989 23.6211 25.7742 24.4276 25.0953 25.0934C24.4286 25.7712 23.6224 26.2957 22.7327 26.6307C21.8833 26.9601 20.9154 27.1841 19.4954 27.2507C18.1628 27.3096 17.6823 27.3285 14.6425 27.3306C14.4613 27.3306 14.2711 27.3307 14.071 27.3307C14.0473 27.3307 14.0234 27.3307 13.9993 27.3307C13.9742 27.3307 13.9502 27.3307 13.9253 27.3307C10.3714 27.3307 9.91479 27.3169 8.50334 27.2507C7.08333 27.1841 6.1167 26.9601 5.26603 26.6307C4.37577 26.2967 3.56938 25.772 2.90336 25.0934C2.22522 24.4269 1.7006 23.6208 1.36601 22.7308C1.03536 21.8813 0.812663 20.9134 0.746012 19.4933C0.687256 18.161 0.668335 17.6803 0.666219 14.6405C0.666097 14.4593 0.666016 14.2692 0.666016 14.0692C0.666016 14.0454 0.666016 14.0215 0.666016 13.9974C0.666016 13.9722 0.666016 13.9482 0.666016 13.9233ZM13.7587 3.33073C13.8373 3.33073 13.9174 3.33073 13.9993 3.33073C14.0811 3.33073 14.1612 3.33073 14.2397 3.33073C14.4034 4.76546 14.6958 5.8693 15.0844 6.86735C15.6029 8.24691 16.4161 9.49658 17.4672 10.5295C18.4996 11.5814 19.7495 12.3947 21.1294 12.9124C22.1289 13.2993 23.2319 13.5924 24.666 13.7567C24.666 13.8353 24.666 13.9155 24.666 13.9974C24.666 14.0791 24.666 14.1592 24.666 14.2376C23.2312 14.4014 22.1292 14.6937 21.1294 15.0824C19.7497 15.6006 18.4999 16.4137 17.4672 17.4653C16.4149 18.4972 15.6015 19.7472 15.0844 21.1274C14.6957 22.1273 14.4033 23.2293 14.2396 24.6641C14.1612 24.6641 14.0811 24.6641 13.9993 24.6641C13.9175 24.6641 13.8373 24.6641 13.7587 24.6641C13.5945 23.2293 13.3014 22.1255 12.9143 21.1274C12.3955 19.748 11.5824 18.4984 10.5315 17.4653C9.38241 16.3182 8.23336 15.6073 6.86934 15.0824C5.86975 14.6938 4.76681 14.4015 3.33268 14.2378C3.33268 14.1593 3.33268 14.0793 3.33268 13.9974C3.33268 13.9155 3.33268 13.8353 3.33268 13.7567C4.76742 13.5924 5.87126 13.2995 6.86934 12.9124C8.24845 12.3932 9.49805 11.5801 10.5315 10.5295C11.5837 9.4974 12.397 8.2474 12.9143 6.86735C13.3013 5.86784 13.5945 4.76481 13.7587 3.33073Z" fill="#00305F"/>
</svg>
