<svg width="120" height="95" viewBox="0 0 120 95" fill="none" xmlns="http://www.w3.org/2000/svg">
<path d="M80.2689 79.2575C79.2654 79.2575 78.2575 79.2176 77.2452 79.1377L77.445 76.4754C86.4549 77.1612 95.4054 74.537 102.617 69.0955C109.828 63.654 114.804 55.7693 116.61 46.9215C118.417 38.0737 116.93 28.8712 112.428 21.0413C107.927 13.2114 100.721 7.29259 92.1623 4.39585C83.6039 1.49912 74.2818 1.82365 65.9458 5.30854C57.6098 8.79342 50.8332 15.199 46.8879 23.323C42.9427 31.4469 42.1002 40.7305 44.5184 49.4313C46.9367 58.132 52.4495 65.6515 60.0221 70.5784L58.5702 72.8014C50.5961 67.5934 44.7646 59.6907 42.142 50.5388C39.5195 41.3868 40.2812 31.5973 44.2879 22.9605C48.2947 14.3237 55.2786 7.417 63.9624 3.50347C72.6462 -0.41006 82.4495 -1.06883 91.5795 1.64765C100.709 4.36413 108.556 10.2743 113.683 18.2973C118.811 26.3202 120.877 35.9197 119.505 45.3401C118.132 54.7606 113.411 63.3723 106.207 69.6003C99.0021 75.8283 89.7948 79.2564 80.2689 79.2575Z" fill="#00305F"/>
<path d="M85.3308 50.5836C82.4137 60.4875 71.2646 92.0228 49.8989 92.3422C49.6458 92.3422 42.0932 92.7416 36.9916 83.1705C34.847 79.177 32.9955 76.0089 29.6921 75.3965C25.3363 74.5978 18.3299 78.4316 8.29972 87.1374L0.0811157 94.339L6.35496 85.4335C7.04761 84.4484 23.5248 61.3527 36.2989 68.8738C39.9529 71.1374 43.1996 73.9994 45.9028 77.34C49.819 81.7861 51.4441 83.6231 57.1451 79.1903C67.1487 71.403 71.1447 56.9599 71.6109 45.4986V45.3921C70.0666 41.3609 69.7787 36.9571 70.7851 32.7593C72.7964 23.5743 79.5365 17.2513 85.837 18.6224C92.1375 19.9935 95.6141 28.5528 93.616 37.7645C92.284 43.5817 89.1804 48.2541 85.424 50.5437L85.3308 50.5836Z" fill="#00305F"/>
</svg>
