<svg width="20" height="14" viewBox="0 0 20 14" fill="none" xmlns="http://www.w3.org/2000/svg">
<path d="M7.83278 9.52182V9.52183C7.83278 11.2741 6.40698 12.7001 4.65453 12.7001C2.90244 12.7001 1.47646 11.2743 1.47646 9.52183C1.47646 7.76975 2.90225 6.34395 4.65453 6.34395C6.40701 6.34395 7.83296 7.76958 7.83278 9.52182ZM0.526465 9.52202C0.526465 11.7984 2.37817 13.6503 4.65453 13.6503C6.93106 13.6503 8.78297 11.7984 8.78278 9.52202C8.78278 7.24584 6.93106 5.39414 4.65453 5.39414C2.37818 5.39414 0.526465 7.24566 0.526465 9.52202Z" fill="#00305F" stroke="#00305F" stroke-width="0.2"/>
<path d="M11.1866 9.52202C11.1866 11.7984 13.0383 13.6503 15.3147 13.6503C17.591 13.6503 19.4429 11.7984 19.4429 9.52202C19.4429 7.24584 17.5912 5.39414 15.3147 5.39414C13.0385 5.39414 11.1866 7.24565 11.1866 9.52202ZM12.1366 9.52183C12.1366 7.76974 13.5622 6.34395 15.3147 6.34395C17.067 6.34395 18.4929 7.76957 18.4929 9.52183C18.4929 11.2741 17.067 12.7001 15.3147 12.7001C13.5624 12.7001 12.1366 11.2743 12.1366 9.52183Z" fill="#00305F" stroke="#00305F" stroke-width="0.2"/>
<path d="M5.62885 0.428876L5.62887 0.428882C5.88411 0.489427 6.04211 0.745407 5.98152 1.0006M5.62885 0.428876L5.88423 0.977495M5.62885 0.428876C4.42925 0.14465 3.22793 0.675964 2.97502 1.66963M5.62885 0.428876L2.97502 1.66963M5.98152 1.0006L5.88423 0.977495M5.98152 1.0006C5.98153 1.00058 5.98153 1.00057 5.98153 1.00056L5.88423 0.977495M5.98152 1.0006C5.92087 1.25642 5.66451 1.41281 5.41014 1.3533L5.40986 1.35324C5.04639 1.26711 4.68906 1.29412 4.41126 1.40167C4.1322 1.5097 3.94563 1.69295 3.89353 1.91258L3.89243 1.91721L3.89232 1.91717L3.88239 1.95167L3.88106 1.95627L3.88095 1.95623L1.81997 8.0087L1.72529 7.97649M5.88423 0.977495C5.83642 1.17924 5.63411 1.303 5.43292 1.25593C4.67017 1.07518 3.92054 1.36543 3.79623 1.8895L3.78629 1.924L1.72529 7.97649M1.72529 7.97649L1.81995 8.00873M1.72529 7.97649C1.67223 8.13249 1.52654 8.23056 1.37036 8.23056C1.33023 8.23056 1.28954 8.22418 1.24942 8.21049M1.81995 8.00873L1.01523 7.73481C0.94848 7.93074 1.05329 8.14393 1.24942 8.21049M1.81995 8.00873C1.75265 8.20656 1.56795 8.33056 1.37036 8.33056C1.31957 8.33056 1.26798 8.32248 1.21721 8.30517M1.81995 8.00873L1.21721 8.30517M1.24942 8.21049L1.21728 8.30519C1.21725 8.30518 1.21723 8.30517 1.21721 8.30517M1.24942 8.21049L1.21721 8.30517M2.97502 1.66963L0.920572 7.70256C0.920571 7.70256 0.92057 7.70257 0.920569 7.70257C0.836039 7.95072 0.968707 8.22074 1.21713 8.30514L2.97502 1.66963Z" fill="#00305F" stroke="#00305F" stroke-width="0.2"/>
<path d="M13.9598 1.00076C14.0202 1.25653 14.2765 1.41277 14.531 1.35356L14.531 1.35356L14.5314 1.35347C14.9086 1.26424 15.2803 1.28959 15.5778 1.41941C15.8409 1.53443 16.0005 1.71278 16.0478 1.91275L16.0473 1.91286L16.0504 1.92194L18.1217 8.00875L18.1218 8.00894C18.1895 8.20652 18.3738 8.3306 18.5715 8.3306C18.6222 8.3306 18.674 8.32255 18.7244 8.30536L18.6921 8.21072M13.9598 1.00076C13.8992 0.7454 14.0572 0.489649 14.3124 0.42911L14.3125 0.4291C14.8831 0.294004 15.4672 0.334957 15.9578 0.548938L15.9579 0.548964C16.4787 0.776555 16.8399 1.17248 16.9661 1.67008L19.0209 7.70279L19.021 7.70287C19.1052 7.95094 18.9728 8.22104 18.7242 8.30542L18.6921 8.21072M13.9598 1.00076C13.9598 1.00078 13.9598 1.00079 13.9598 1.0008L14.0571 0.977723L13.9598 1.00072C13.9598 1.00073 13.9598 1.00075 13.9598 1.00076ZM18.6921 8.21072C18.6525 8.22422 18.6116 8.2306 18.5715 8.2306C18.4153 8.2306 18.2698 8.13254 18.2164 7.97654L15.9178 0.640598C16.416 0.858286 16.7535 1.23329 16.8701 1.69847L18.9263 7.73503C18.9928 7.93097 18.8882 8.14416 18.6921 8.21072Z" fill="#00305F" stroke="#00305F" stroke-width="0.2"/>
<path d="M11.8322 9.18837C12.0167 9.2825 12.09 9.50806 11.9961 9.69256L11.4915 9.85625L11.4459 9.94526C11.4462 9.94538 11.4464 9.9455 11.4466 9.94562C11.5155 9.98073 11.5888 9.99731 11.6614 9.99731C11.8342 9.99731 12.001 9.90272 12.0851 9.73805L12.0852 9.73793C12.2041 9.50433 12.1114 9.21877 11.878 9.09947M11.8322 9.18837L11.878 9.09947M11.8322 9.18837C11.8009 9.17225 11.0511 8.79688 9.94594 8.79688C8.83087 8.79688 8.14969 9.18106 8.12119 9.19738L11.878 9.09947M11.8322 9.18837L11.8776 9.0993C11.8777 9.09935 11.8779 9.09941 11.878 9.09947" fill="#00305F" stroke="#00305F" stroke-width="0.2"/>
</svg>
