<svg width="51" height="50" viewBox="0 0 51 50" fill="none" xmlns="http://www.w3.org/2000/svg">
<path d="M25.5765 0.00130333C28.0216 0.3519 29.9792 1.77644 32.0515 2.94814C32.7018 3.31568 33.347 3.69495 33.9856 4.08334C35.1104 4.76629 35.2915 6.0618 34.3909 7.02888C33.9361 7.51632 33.4578 7.98031 32.9794 8.4443C32.7527 8.66456 32.6953 8.79098 33.0524 8.9526C34.2293 9.48436 34.7767 10.4306 34.7715 11.7078C34.7689 12.1288 34.8054 12.5511 34.7129 12.9708C34.4261 14.2754 33.4069 15.1695 32.071 15.2334C31.7087 15.2503 31.5705 15.3363 31.551 15.7312C31.392 18.8592 29.9049 21.1935 27.1848 22.7002C26.5696 23.0403 26.6974 23.4861 26.6817 23.9631C26.6674 24.414 26.9906 24.5613 27.3425 24.6917C29.2154 25.3876 31.087 26.0888 32.9599 26.7887C33.1424 26.8565 33.3287 26.919 33.5047 27.0012C33.923 27.1993 34.1029 27.615 33.9504 28.006C33.8018 28.3905 33.3717 28.6017 32.9442 28.4492C31.9498 28.0947 30.9567 27.7323 29.9779 27.3348C29.6038 27.1836 29.3497 27.2423 29.0668 27.5082C27.7843 28.7098 26.3207 29.5922 24.5586 29.8737C21.9975 30.2829 19.7024 29.6534 17.7747 27.9213C17.1114 27.3257 16.5666 27.1458 15.7311 27.5499C14.7549 28.023 13.7044 28.3384 12.6852 28.7229C11.6856 29.0995 10.9909 29.7786 10.6025 30.7795C10.4578 31.1523 10.5152 31.3165 10.9557 31.3048C11.752 31.2839 12.5484 31.2995 13.3447 31.2995C20.2863 31.2995 27.2278 31.2969 34.1694 31.3074C34.5969 31.3074 34.765 31.2657 34.7754 30.7417C34.8458 26.9464 37.4525 23.9188 41.1917 23.2384C42.5681 22.9882 43.9105 23.1589 45.2112 23.6594C45.7821 23.8784 46.0141 24.2967 45.8446 24.7386C45.6726 25.1869 45.2412 25.3394 44.6573 25.1191C40.9246 23.7168 37.27 26.081 36.4945 29.4605C35.6461 33.162 38.4391 36.7892 42.2383 36.8739C45.3103 36.9417 47.8674 34.9411 48.4187 31.9421C48.7615 30.077 48.3418 28.3566 47.1011 26.876C47.0176 26.777 46.9238 26.6844 46.8456 26.5815C46.5367 26.1788 46.551 25.7395 46.8782 25.4437C47.2079 25.1452 47.6471 25.1726 48.0056 25.5388C48.7211 26.2687 49.2516 27.1211 49.6087 28.0764C50.8768 31.4742 49.7194 35.0936 46.6814 37.1802C46.3712 37.3926 46.2656 37.6168 46.2669 37.9778C46.2799 41.0667 46.276 44.1556 46.2813 47.2445C46.2826 48.2012 45.945 48.9884 45.1552 49.5553C44.6716 49.9033 44.1242 49.9894 43.539 49.988C34.6633 49.9815 25.7876 49.9841 16.9106 49.9841C12.2942 49.9841 7.67652 49.9581 3.06011 49.9998C1.60168 50.0128 0.628094 49.4576 0.117188 48.0956C0.117188 37.7862 0.117188 27.4782 0.117188 17.1688C0.153681 17.0619 0.192781 16.9551 0.226668 16.8469C0.831414 14.9414 2.34719 13.8271 4.3465 13.8192C4.94734 13.8166 5.54948 13.8127 6.15032 13.8205C6.3784 13.8232 6.51134 13.7528 6.55956 13.5104C6.87758 11.8968 7.47581 10.2559 6.03953 8.8366C5.99522 8.79359 5.97437 8.72451 5.94569 8.66586C5.46346 7.65839 6.05517 6.47757 7.1617 6.33941C7.9033 6.24688 8.57321 5.98491 9.24964 5.70599C9.72927 5.50789 10.2128 5.30978 10.7081 5.15729C11.1434 5.02305 11.5096 5.21724 11.6647 5.60955C11.8302 6.02661 11.6934 6.40067 11.3089 6.55186C10.1776 6.99629 9.09976 7.59322 7.89027 7.82C7.3155 7.92818 7.29204 7.93078 7.63481 8.37783C8.54193 9.55995 8.75047 10.8555 8.40378 12.2904C7.99453 13.9848 7.79382 15.7143 7.79773 17.4555C7.80164 19.2802 8.08577 21.0775 8.47416 22.8592C8.7257 24.0165 8.51065 25.084 7.83683 26.0575C7.71692 26.2309 7.59441 26.4042 7.48363 26.5841C7.38457 26.7444 7.40673 26.8734 7.62178 26.8878C8.62144 26.9581 9.47643 27.4599 10.3835 27.8066C10.6481 27.907 10.8645 27.937 11.1095 27.761C11.481 27.4938 11.9111 27.3374 12.3385 27.1784C14.5764 26.3456 16.8116 25.5036 19.052 24.6773C19.4104 24.5457 19.662 24.3593 19.6294 23.9461C19.5942 23.5108 19.8093 23.0312 19.1993 22.7353C18.0419 22.1736 17.1048 21.3199 16.345 20.2786C15.3505 18.9127 14.8396 17.3773 14.7419 15.6987C14.7276 15.4549 14.7093 15.2751 14.3835 15.2386C12.4128 15.017 11.4288 13.8062 11.5448 11.7808C11.6374 10.1764 12.3047 9.20023 13.6262 8.84051C14.0446 8.72712 14.055 8.61373 13.8256 8.29441C13.114 7.30518 12.8912 6.18041 13.114 5.00219C13.5611 2.63404 15.782 1.15475 18.1592 1.59398C18.403 1.63829 18.6441 1.68 18.8682 1.53663C20.1194 0.73899 21.4971 0.27761 22.9451 0C23.8196 0.00130333 24.6981 0.00130333 25.5765 0.00130333ZM23.1914 48.454C29.8071 48.454 36.4228 48.454 43.0386 48.454C43.2171 48.454 43.397 48.4605 43.5755 48.4501C44.3067 48.4097 44.6716 48.0357 44.6755 47.3084C44.6821 46.1706 44.6782 45.0328 44.6782 43.895C44.6782 42.155 44.6703 40.4164 44.6834 38.6777C44.686 38.2945 44.6078 38.1447 44.1842 38.262C43.7802 38.374 43.3553 38.4405 42.9369 38.4588C39.3931 38.6126 36.4567 36.6693 35.2173 33.3458C35.096 33.02 34.9436 32.8935 34.5904 32.8948C25.2116 32.904 15.8315 32.8974 6.45269 32.9079C4.48335 32.9105 2.68866 34.2086 1.97965 36.0528C1.69943 36.7814 1.62775 37.5399 1.62384 38.3024C1.6095 41.2114 1.61732 44.1217 1.61863 47.0308C1.61863 47.1924 1.62123 47.3566 1.6473 47.5169C1.73984 48.0826 1.9992 48.3471 2.56615 48.4306C2.78902 48.4645 3.01971 48.4553 3.24649 48.4553C9.89479 48.454 16.5431 48.454 23.1914 48.454ZM16.3294 13.3605C16.3294 14.076 16.3294 14.7915 16.3294 15.5058C16.3333 19.1499 19.529 22.7249 24.1754 22.0706C27.697 21.5754 30.0209 18.7537 30.0287 15.1812C30.0313 13.7502 30.0078 12.3191 30.0404 10.8894C30.0521 10.3863 29.8944 10.2611 29.4057 10.2651C28.1076 10.2742 26.8082 10.3433 25.5139 10.1269C23.7805 9.83756 22.2517 9.05947 20.7359 8.23185C19.7975 7.71964 19.7754 7.72225 19.2905 8.64892C18.7444 9.69419 17.9259 10.2833 16.7282 10.2742C16.388 10.2716 16.3215 10.4384 16.3241 10.7277C16.3346 11.6049 16.3294 12.4833 16.3294 13.3605ZM28.4999 8.74276C28.6954 8.74276 28.8896 8.73494 29.0851 8.74406C30.0157 8.78838 30.7898 8.50164 31.4206 7.77829C31.9211 7.20352 32.4946 6.69392 33.0329 6.15173C33.476 5.70599 33.4682 5.59912 32.9312 5.28502C31.4467 4.41309 29.9674 3.53073 28.466 2.68747C25.6221 1.09219 22.7639 1.10392 19.9487 2.74743C19.2306 3.1671 18.5476 3.30786 17.7278 3.13452C15.9918 2.76958 14.3496 4.43264 14.6324 6.18432C14.7849 7.13054 15.4105 7.81088 15.881 8.57984C15.9188 8.6424 16.0009 8.69323 16.0726 8.7193C16.6539 8.92783 17.5336 8.58115 17.8399 8.02462C18.0511 7.64014 18.2426 7.24523 18.4616 6.86596C18.8761 6.14652 19.6346 5.90931 20.3892 6.26773C20.7698 6.44889 21.1465 6.64309 21.5088 6.86075C23.6606 8.15235 25.9532 8.91741 28.4999 8.74276ZM1.67467 33.5165C1.72941 33.4735 1.78154 33.4422 1.82195 33.3992C2.92457 32.2314 4.27091 31.5511 5.86749 31.3556C6.71075 31.2526 7.55531 31.3139 8.39987 31.3061C8.73613 31.3035 8.90947 31.1927 8.96291 30.8538C9.03981 30.3677 9.22618 29.9154 9.47382 29.4918C9.59112 29.2924 9.57939 29.1842 9.34739 29.0852C8.6449 28.7854 7.95152 28.4817 7.17343 28.4009C6.4957 28.3319 6.0643 27.9122 5.84273 27.2696C5.61074 26.601 5.87922 26.0536 6.27544 25.5558C6.93883 24.7203 7.10436 23.8314 6.86063 22.7731C6.32757 20.4545 6.0643 18.0994 6.29629 15.713C6.32105 15.4523 6.23373 15.352 5.98219 15.3546C5.38135 15.3624 4.7766 15.3298 4.17837 15.3741C3.00016 15.4614 2.1543 16.0388 1.76981 17.1858C1.62514 17.6185 1.61211 18.0785 1.61341 18.536C1.61472 23.3636 1.61341 28.1911 1.61602 33.0186C1.61863 33.1763 1.57431 33.3419 1.67467 33.5165ZM24.0373 28.3814C24.8141 28.3618 25.9792 27.9122 27.0284 27.1497C27.2565 26.9842 27.6462 26.8461 27.6032 26.5593C27.5654 26.3117 27.1548 26.2895 26.902 26.2126C25.7577 25.8633 25.1203 25.1283 25.0825 23.9162C25.0721 23.5995 24.9457 23.5447 24.6511 23.5995C23.6854 23.778 22.7092 23.795 21.7473 23.6047C21.3146 23.5187 21.209 23.632 21.209 24.0478C21.2077 24.9875 20.7359 25.6457 19.8875 26.0276C19.5773 26.167 19.2514 26.27 18.9295 26.3847C18.6793 26.4746 18.5515 26.5554 18.8357 26.7939C20.1911 27.9239 21.733 28.487 24.0373 28.3814ZM33.1619 11.9802C33.1762 10.8867 32.8569 10.411 32.0593 10.2924C31.7165 10.2416 31.5471 10.3315 31.5575 10.7199C31.5784 11.4954 31.5627 12.2735 31.564 13.0503C31.5653 13.6394 31.7217 13.7593 32.2965 13.6159C32.7461 13.5038 33.1137 13.0868 33.158 12.6124C33.1775 12.4012 33.1619 12.1901 33.1619 11.9802ZM14.7276 11.975H14.7289C14.7289 11.6505 14.7289 11.326 14.7289 11.0027C14.7276 10.2364 14.4382 10.0748 13.7631 10.4658C13.4529 10.6456 13.2391 10.9115 13.1753 11.2634C13.0827 11.7756 13.0606 12.2956 13.2079 12.8039C13.3525 13.3031 13.78 13.6159 14.2805 13.6446C14.5829 13.6615 14.7406 13.5677 14.7302 13.2393C14.7184 12.8183 14.7276 12.396 14.7276 11.975Z" fill="#00305F" fill-opacity="0.6"/>
<path d="M44.6769 19.3218C44.6769 18.9321 44.6782 18.5424 44.6769 18.1514C44.6691 16.4805 43.6264 15.4066 41.9568 15.3597C41.502 15.3466 41.0445 15.3857 40.5922 15.3479C40.1152 15.3075 39.994 15.5122 40.0435 15.9436C40.2755 17.9351 39.9849 19.894 39.6538 21.8503C39.5509 22.4576 39.195 22.7835 38.7376 22.7066C38.2501 22.6245 38.0129 22.2048 38.1172 21.5805C38.4013 19.8966 38.6033 18.2049 38.5173 16.4936C38.4378 14.9179 38.1785 13.3656 37.8435 11.825C37.5893 10.6586 37.8552 9.60416 38.529 8.63839C38.6216 8.50545 38.7102 8.3686 38.8067 8.23696C38.9852 7.99454 38.9539 7.859 38.6281 7.83684C37.9334 7.78862 37.3039 7.52274 36.6861 7.23079C36.17 6.98576 35.9928 6.60258 36.1752 6.18161C36.3707 5.73065 36.7865 5.58468 37.3209 5.81016C37.9217 6.06431 38.533 6.24677 39.1846 6.34583C40.3355 6.52178 41.0262 7.86942 40.2964 8.75308C39.1664 10.1216 39.3019 11.5396 39.6773 13.0671C39.8598 13.8126 39.8246 13.8165 40.6027 13.823C41.3325 13.8296 42.0767 13.7657 42.7909 13.8765C44.7798 14.1854 46.2109 15.8823 46.2682 17.9312C46.2956 18.9047 46.2813 19.8809 46.2722 20.8558C46.2656 21.4606 45.9541 21.8399 45.4888 21.849C45.0066 21.8581 44.6951 21.4671 44.6782 20.8324C44.6769 20.7998 44.6782 20.7672 44.6782 20.7346C44.6769 20.2641 44.6769 19.7923 44.6769 19.3218Z" fill="#00305F" fill-opacity="0.6"/>
<path d="M42.3338 26.308C43.7297 26.308 44.4113 26.8932 44.4778 28.1496C44.5039 28.6462 44.6668 28.7765 45.1425 28.7739C46.0535 28.77 46.6987 29.3109 46.9098 30.1619C47.1666 31.1916 46.8251 32.16 46.0575 32.6057C45.7499 32.7856 45.4162 32.8468 45.0721 32.8155C44.6629 32.7777 44.5078 32.9146 44.4843 33.3512C44.4022 34.8748 43.34 35.6333 41.8333 35.2906C40.9536 35.0912 40.401 34.4225 40.401 33.4529C40.401 32.9784 40.2902 32.7973 39.778 32.8064C38.6258 32.8273 37.9429 32.1091 37.9338 30.9557C37.922 29.4529 38.4799 28.8378 39.9657 28.7674C40.3293 28.7504 40.3971 28.5836 40.3906 28.2773C40.3749 27.5448 40.6369 26.944 41.2716 26.5374C41.6326 26.308 42.0354 26.2819 42.3338 26.308ZM45.3667 30.8501C45.3693 30.4409 45.3067 30.3744 44.9118 30.3614C44.6681 30.3535 44.4244 30.3666 44.182 30.3548C43.3791 30.3144 42.9295 29.8504 42.9138 29.0554C42.9086 28.8286 42.906 28.6005 42.9125 28.3738C42.9229 28.0531 42.8343 27.8433 42.455 27.8368C42.0823 27.8316 41.9715 28.0167 41.9858 28.3516C41.9963 28.594 41.995 28.8391 41.9832 29.0815C41.948 29.8426 41.4854 30.3118 40.7229 30.3535C40.4635 30.3679 40.2029 30.3679 39.9448 30.3574C39.6203 30.3457 39.4587 30.4773 39.4717 30.8149C39.4834 31.1329 39.6255 31.2945 39.9539 31.2841C40.1977 31.2763 40.4414 31.2802 40.6838 31.2854C41.4945 31.2998 41.9441 31.7338 41.9819 32.5444C41.9937 32.8038 41.995 33.0645 41.9871 33.3225C41.978 33.6471 42.1501 33.7409 42.4446 33.7396C42.73 33.7383 42.9203 33.6666 42.9099 33.333C42.9021 33.0579 42.9034 32.7816 42.9125 32.5053C42.9373 31.7455 43.3791 31.305 44.1337 31.2854C44.3931 31.2789 44.6538 31.2737 44.9131 31.2841C45.2533 31.3011 45.3941 31.142 45.3667 30.8501Z" fill="#00305F" fill-opacity="0.6"/>
<path d="M20.1641 18.09C20.1901 17.8085 20.3113 17.5661 20.5759 17.4266C20.8744 17.2689 21.1754 17.3002 21.4465 17.497C22.0943 17.9688 22.8098 18.1435 23.6036 18.0353C24.048 17.974 24.4377 17.7981 24.8104 17.5557C25.32 17.2233 25.7945 17.2768 26.0486 17.6795C26.3054 18.0848 26.1646 18.5227 25.6641 18.872C24.1614 19.9225 22.1152 19.9095 20.6476 18.8473C20.3869 18.657 20.1875 18.4393 20.1641 18.09Z" fill="#00305F" fill-opacity="0.6"/>
<path d="M19.8228 14.6674C19.669 14.6595 19.4526 14.6986 19.2584 14.5918C18.9443 14.4197 18.7749 14.1551 18.8309 13.7941C18.887 13.4383 19.1072 13.2063 19.4669 13.1555C19.7055 13.1216 19.9518 13.1307 20.1929 13.1425C20.6543 13.1633 20.9827 13.48 20.9892 13.8919C20.9971 14.3194 20.6543 14.6426 20.1681 14.6661C20.0717 14.6713 19.9739 14.6674 19.8228 14.6674Z" fill="#00305F" fill-opacity="0.6"/>
<path d="M26.4195 14.6874C26.2266 14.6639 26.0206 14.6769 25.846 14.6105C25.511 14.4827 25.3286 14.2169 25.3612 13.848C25.395 13.4609 25.6218 13.2159 26.0024 13.1573C26.2409 13.1208 26.4898 13.1312 26.7323 13.1455C27.2028 13.1729 27.5182 13.4909 27.513 13.9145C27.5077 14.3368 27.191 14.6378 26.7153 14.6678C26.6176 14.6743 26.5198 14.6691 26.4234 14.6691C26.4208 14.673 26.4195 14.6795 26.4195 14.6874Z" fill="#00305F" fill-opacity="0.6"/>
</svg>
