<svg width="53" height="50" viewBox="0 0 53 50" fill="none" xmlns="http://www.w3.org/2000/svg">
<path d="M0 17.5271C0.340634 17.5134 0.679901 17.4916 1.02053 17.4888C1.70454 17.482 1.70591 17.4861 1.70591 16.8226C1.70591 13.802 1.70591 10.7815 1.70591 7.76091C1.70591 7.21507 1.70044 6.66923 1.70864 6.12203C1.73874 4.18356 2.98226 2.51733 4.83591 1.95781C5.17107 1.85658 5.38448 1.69789 5.55412 1.38188C6.11911 0.328511 7.32432 -0.198172 8.45977 0.0685896C9.64857 0.347663 10.4995 1.34221 10.5665 2.53374C10.6335 3.7157 9.87429 4.832 8.74295 5.21641C7.60613 5.60219 6.32978 5.2123 5.68681 4.17809C5.38038 3.68561 5.12593 3.76358 4.75657 4.00846C3.93029 4.55566 3.56914 5.32995 3.57324 6.30945C3.58282 8.37377 3.57461 10.4395 3.57461 12.5038C3.57461 13.9717 3.58829 15.4395 3.5664 16.906C3.55956 17.352 3.70731 17.5217 4.15738 17.4929C4.64986 17.4628 5.14782 17.5052 5.64167 17.4806C6.0466 17.4615 6.1834 17.6243 6.17383 18.0182C6.15194 19.0579 6.15741 20.0949 6.4529 21.1113C7.24908 23.8583 9.71834 25.8569 12.5638 26.1196C14.6952 26.3166 16.6446 25.8993 18.3286 24.5546C19.9018 23.2974 20.7554 21.6353 20.8662 19.6133C20.895 19.1031 20.8991 18.5887 20.8827 18.0784C20.869 17.6543 21.0017 17.471 21.4654 17.4751C22.6337 17.4847 22.6337 17.4656 22.6296 16.3123C22.6214 12.9511 22.6118 9.58857 22.605 6.22737C22.6023 5.22051 22.1713 4.4599 21.3067 3.94279C21.0044 3.76221 20.8019 3.74169 20.5694 4.11379C19.8922 5.19999 18.5365 5.6145 17.3888 5.14801C16.1822 4.65826 15.5214 3.45852 15.7485 2.17122C15.9606 0.972844 17.0728 0.00976525 18.3286 0.0207093C19.3779 0.0289174 20.1946 0.514561 20.6993 1.45575C20.8293 1.69789 20.9839 1.85111 21.2534 1.93455C23.2849 2.56794 24.4805 4.18083 24.4901 6.33681C24.5065 9.83481 24.512 13.3342 24.4942 16.8322C24.4915 17.3465 24.6255 17.508 25.1522 17.4998C26.4135 17.4792 26.2015 17.3233 26.2548 18.6202C26.3561 21.1359 25.7678 23.4574 24.393 25.571C22.698 28.1757 20.3423 29.9268 17.3929 30.857C16.8251 31.0362 16.6405 31.2866 16.6719 31.8611C16.7198 32.7284 16.6938 33.6012 16.5214 34.459C16.2834 35.6437 15.6528 36.4864 14.4188 36.7641C14.1931 36.8147 14.0604 36.8981 14.0481 37.1608C13.9291 39.7012 14.4065 42.0815 15.8881 44.2033C19.7363 49.7109 27.3999 49.4168 30.8568 43.5207C31.8664 41.7997 32.2645 39.9283 32.2549 37.9365C32.2317 32.459 32.2344 26.9801 32.2522 21.5026C32.2604 18.8568 33.1811 16.5859 35.2591 14.8828C38.7283 12.04 43.7996 13.0277 46.0636 16.9498C46.9145 18.4245 47.2811 20.0073 47.2401 21.7023C47.2155 22.7091 47.236 22.7105 48.195 23.0197C52.1882 24.3056 53.76 29.1511 51.2812 32.5369C49.786 34.5794 47.2237 35.4877 44.7448 34.8557C42.3289 34.2401 40.5177 32.1744 40.2017 29.6737C39.8091 26.5724 41.6873 23.7666 44.7544 22.9349C45.225 22.8076 45.3659 22.6189 45.3687 22.1387C45.3755 20.7953 45.3194 19.4765 44.6655 18.2576C43.5164 16.1181 41.3686 14.8609 39.2933 15.1194C36.9144 15.4149 34.9909 17.14 34.3534 19.5627C34.1975 20.1578 34.125 20.7652 34.1264 21.3849C34.1305 26.9992 34.1414 32.6135 34.1236 38.2278C34.1127 41.6273 32.9335 44.5768 30.5011 46.9681C25.839 51.5536 18.3163 50.8382 14.5187 45.4961C12.8415 43.1376 12.1165 40.5124 12.1725 37.6519C12.1835 37.1074 12.0932 36.8147 11.4817 36.6574C10.3681 36.3701 9.66499 35.2538 9.59932 33.8844C9.56375 33.1525 9.52271 32.4179 9.53913 31.686C9.55007 31.2264 9.3736 31.0431 8.94404 30.9022C4.74836 29.53 1.8345 26.8255 0.437763 22.5901C0.236666 21.9786 0.143641 21.3316 0 20.7009C0 19.6434 0 18.586 0 17.5271ZM12.479 29.6942C15.4927 29.6874 17.7677 29.0649 19.7978 27.6709C22.2958 25.9554 23.8526 23.6161 24.3205 20.5956C24.5188 19.3124 24.4641 19.2741 23.2274 19.2973C22.8649 19.3042 22.776 19.4396 22.75 19.7802C22.5557 22.3904 21.4326 24.5341 19.3628 26.1264C17.386 27.6463 15.1056 28.2564 12.6281 27.9992C9.0699 27.6285 6.45564 25.8843 4.98639 22.5628C4.6184 21.731 4.39405 20.8541 4.36258 19.9403C4.34617 19.4943 4.19568 19.2494 3.68405 19.2973C3.21072 19.3425 2.72781 19.3247 2.25174 19.3014C1.90153 19.2836 1.8304 19.4163 1.8386 19.7488C1.8728 21.1961 2.24217 22.5559 2.93985 23.809C5.13961 27.7544 8.64172 29.4972 12.479 29.6942ZM50.5876 28.9008C50.5999 26.4917 48.7394 24.6134 46.3317 24.6038C43.9391 24.5943 42.0266 26.4794 42.0129 28.8611C42.0006 31.2318 43.9186 33.1662 46.288 33.1717C48.6833 33.1758 50.5753 31.2975 50.5876 28.9008ZM13.096 34.9227C13.215 34.9227 13.3354 34.9227 13.4544 34.9227C14.4352 34.9214 14.5707 34.7955 14.7458 33.8133C14.8607 33.1676 14.7868 32.5205 14.8142 31.8734C14.8265 31.5889 14.702 31.4562 14.4188 31.4877C13.5515 31.5834 12.6855 31.5916 11.8182 31.4877C11.5063 31.4507 11.39 31.5985 11.3996 31.9035C11.4147 32.3974 11.3832 32.894 11.4133 33.3865C11.494 34.7326 11.7061 34.9214 13.0467 34.9214C13.0618 34.9227 13.0795 34.9227 13.096 34.9227ZM7.84964 1.88394C7.40093 1.88804 7.08766 2.20542 7.08629 2.6555C7.08492 3.12883 7.42692 3.4763 7.87837 3.46125C8.30108 3.44757 8.66087 3.09052 8.6636 2.67875C8.66771 2.23278 8.30792 1.87983 7.84964 1.88394ZM18.3792 1.88394C17.9209 1.87299 17.557 2.21636 17.5502 2.66507C17.5447 3.07684 17.8963 3.44073 18.3204 3.46262C18.7705 3.48588 19.122 3.14251 19.1275 2.67191C19.133 2.2191 18.8238 1.89488 18.3792 1.88394Z" fill="#00305F" fill-opacity="0.6"/>
<path d="M48.977 28.8965C48.9729 30.3521 47.7513 31.5683 46.2971 31.5655C44.8689 31.5628 43.635 30.3138 43.6309 28.8664C43.6268 27.4259 44.8648 26.2043 46.3245 26.207C47.7773 26.2098 48.9812 27.43 48.977 28.8965ZM46.3081 29.6763C46.739 29.6831 47.0687 29.3548 47.0851 28.9061C47.1015 28.4301 46.7787 28.0949 46.3081 28.0976C45.8717 28.1004 45.5256 28.4287 45.5078 28.8555C45.4886 29.2837 45.8676 29.6708 46.3081 29.6763Z" fill="#00305F" fill-opacity="0.6"/>
</svg>
