<svg width="50" height="50" viewBox="0 0 50 50" fill="none" xmlns="http://www.w3.org/2000/svg">
<path d="M40.7485 18.3839C35.7022 18.3825 31.6125 14.2803 31.6152 9.22013C31.618 4.08364 35.6856 0.0188668 40.8179 0.0244197C45.9377 0.0299727 49.9803 4.11002 49.9761 9.26456C49.9706 14.333 45.8711 18.3839 40.7485 18.3839ZM35.7716 14.5871C35.7716 14.097 35.7855 13.6542 35.7689 13.2113C35.7203 11.8897 36.2381 10.8971 37.4292 10.2835C37.568 10.2113 37.7346 10.153 37.6485 9.94341C37.2695 9.00634 37.4542 8.02486 37.4431 7.06419C37.4278 5.67179 38.4232 4.47512 39.7934 4.23079C40.264 4.14611 40.7596 4.18082 41.2427 4.18359C42.6282 4.19331 43.8429 5.09844 44.0719 6.46725C44.2538 7.55008 44.2913 8.67455 43.9928 9.76016C43.9109 10.0559 43.9456 10.1794 44.2177 10.3224C45.3005 10.8874 45.8239 11.8023 45.8183 13.0211C45.8169 13.5306 45.8183 14.0401 45.8183 14.6051C47.9132 12.9462 48.7684 9.44503 47.798 6.74767C46.729 3.77961 44.0872 1.79165 40.761 1.77777C37.5 1.76389 34.6596 3.92677 33.7032 7.01005C32.8008 9.92397 33.8781 13.0225 35.7716 14.5871ZM40.8165 11.7342C40.2112 11.7342 39.6046 11.7273 38.9993 11.7356C37.9928 11.7509 37.5278 12.2021 37.5111 13.1919C37.4986 13.936 37.5208 14.6801 37.5028 15.4242C37.4944 15.7532 37.6222 15.9253 37.9234 16.0447C39.8461 16.8152 41.7605 16.8152 43.6804 16.0392C43.9539 15.9295 44.0969 15.7782 44.09 15.4644C44.0733 14.6856 44.0997 13.9068 44.0789 13.128C44.0553 12.2173 43.5958 11.7634 42.6851 11.737C42.0618 11.7204 41.4384 11.7356 40.8165 11.7342ZM42.4213 7.97766C42.4199 7.97766 42.4199 7.97766 42.4185 7.97766C42.4185 7.75276 42.4269 7.52648 42.4171 7.30297C42.3769 6.39645 41.9257 5.95221 41.0109 5.91751C40.8373 5.91057 40.6638 5.90918 40.4917 5.92028C39.6629 5.97581 39.2256 6.40478 39.177 7.23356C39.1548 7.61394 39.1673 7.9957 39.17 8.37608C39.177 9.56303 39.6198 10.0003 40.8123 9.99755C41.9674 9.99477 42.4116 9.55192 42.4199 8.39274C42.4227 8.25392 42.4213 8.11509 42.4213 7.97766Z" fill="#00305F" fill-opacity="0.6"/>
<path d="M9.18947 49.9738C4.07103 49.9711 0.0367952 45.8896 0.0215245 40.7392C0.00625384 35.6152 4.35145 31.5324 9.29914 31.6004C14.3301 31.6699 18.3963 35.7416 18.3866 40.8225C18.3769 45.9174 14.2968 49.9766 9.18947 49.9738ZM14.2288 46.2145C16.468 44.2904 17.2329 40.7573 16.0724 37.978C14.7674 34.8531 11.8521 33.2233 8.94514 33.3802C5.45788 33.569 2.82716 35.7846 2.01088 38.9651C1.27094 41.8498 2.48982 44.8595 4.1807 46.1562C4.1807 45.6953 4.19597 45.2663 4.17792 44.8373C4.12378 43.4977 4.63882 42.4857 5.85492 41.8665C6.00207 41.7915 6.13812 41.7193 6.05621 41.5167C5.68416 40.5963 5.86186 39.6328 5.85353 38.6888C5.83965 37.0326 7.11961 35.786 8.78827 35.7707C9.06592 35.768 9.34218 35.768 9.61983 35.7707C11.0053 35.7832 12.1853 36.6287 12.4629 37.9753C12.6851 39.0567 12.6823 40.1812 12.4269 41.2696C12.3449 41.618 12.3491 41.7665 12.6906 41.9484C13.7082 42.4898 14.2149 43.3713 14.2274 44.5278C14.2343 45.0581 14.2288 45.5912 14.2288 46.2145ZM9.21169 43.3255C8.58837 43.3255 7.96505 43.313 7.34311 43.3283C6.40189 43.3519 5.94238 43.8073 5.92155 44.7457C5.90489 45.5065 5.92711 46.2686 5.91184 47.0294C5.90628 47.332 6.01318 47.5069 6.29638 47.6221C8.23298 48.4079 10.1654 48.4121 12.102 47.6263C12.381 47.5125 12.5032 47.3473 12.4977 47.0405C12.4824 46.2797 12.5046 45.5176 12.4893 44.7568C12.4699 43.7948 12.0034 43.345 11.0275 43.3269C10.4222 43.3158 9.81696 43.3255 9.21169 43.3255ZM10.8318 39.5662C10.8304 39.5662 10.8304 39.5662 10.829 39.5662C10.829 39.3413 10.8373 39.115 10.8276 38.8915C10.7873 37.985 10.3348 37.5393 9.41992 37.5088C9.127 37.4991 8.83408 37.4949 8.54255 37.5671C8.05667 37.6893 7.75959 37.9794 7.64436 38.4667C7.52636 38.9637 7.58467 39.4676 7.58328 39.9674C7.57911 41.1529 8.03168 41.5902 9.22418 41.5875C10.3778 41.5847 10.822 41.1418 10.8304 39.9813C10.8332 39.8438 10.8318 39.705 10.8318 39.5662Z" fill="#00305F" fill-opacity="0.6"/>
<path d="M35.7709 46.1171C35.7709 45.6118 35.7709 45.0981 35.7709 44.5845C35.7695 43.385 36.2887 42.4827 37.3493 41.9232C37.6436 41.7677 37.6672 41.6372 37.5895 41.3249C37.316 40.2198 37.316 39.0801 37.5367 37.9806C37.8088 36.6257 38.9847 35.7955 40.3715 35.765C41.353 35.7427 42.3165 35.7469 43.1161 36.4507C43.7602 37.0172 44.16 37.7154 44.1462 38.5761C44.1295 39.5549 44.3239 40.553 43.9476 41.5081C43.8685 41.708 43.9893 41.7858 44.1406 41.8621C45.3817 42.4882 45.8856 43.5238 45.8232 44.8802C45.8037 45.2911 45.8204 45.7048 45.8204 46.2323C46.4493 45.6617 46.8949 45.0842 47.2572 44.4415C47.564 43.8973 47.8208 43.3267 47.9527 42.7131C48.0305 42.3536 48.1901 42.2467 48.5663 42.3091C49.8977 42.5271 49.9226 42.5507 49.4798 43.8306C48.0915 47.8399 44.0795 50.3887 39.8482 49.9514C35.6932 49.5224 32.2795 46.2365 31.7172 42.1231C30.9107 36.2259 35.6154 31.2046 41.5488 31.628C45.8912 31.939 49.5686 35.5456 49.9587 39.8797C49.9712 40.0171 49.9587 40.1574 49.9754 40.2948C50.0254 40.7029 49.8518 40.8348 49.4451 40.8362C48.2859 40.8418 48.2859 40.857 48.136 39.6881C47.7195 36.4466 44.9028 33.7701 41.6348 33.4244C37.4757 32.9843 34.1064 35.8913 33.5039 39.4646C33.0805 41.9746 33.7774 44.1513 35.5113 46.0032C35.5654 46.0643 35.6168 46.1407 35.7709 46.1171ZM40.8005 43.3239C40.2119 43.3239 39.6233 43.3239 39.036 43.3239C39.0013 43.3239 38.9666 43.3239 38.9319 43.3253C37.9907 43.3586 37.5326 43.8057 37.5104 44.7455C37.4937 45.5063 37.5159 46.2684 37.5007 47.0292C37.4951 47.3304 37.602 47.5067 37.8852 47.6219C39.8218 48.4091 41.7528 48.4118 43.6908 47.6247C43.9685 47.5123 44.0948 47.3498 44.0879 47.0416C44.0726 46.2809 44.0948 45.5187 44.0795 44.758C44.0601 43.7973 43.5936 43.3461 42.6177 43.3281C42.0124 43.3156 41.4072 43.3253 40.8005 43.3239ZM42.422 39.5507C42.4178 39.5507 42.4136 39.5507 42.4095 39.5507C42.4095 39.273 42.4345 38.994 42.4053 38.7205C42.3262 37.9861 41.9361 37.5974 41.2031 37.5197C40.9296 37.4905 40.6464 37.4919 40.3743 37.5225C39.6441 37.6044 39.2443 37.9986 39.1888 38.7358C39.1485 39.2689 39.1568 39.8103 39.1874 40.3448C39.2165 40.8362 39.4206 41.2527 39.912 41.4567C41.3489 42.0537 42.422 41.3485 42.4234 39.8103C42.422 39.7242 42.422 39.6382 42.422 39.5507Z" fill="#00305F" fill-opacity="0.6"/>
<path d="M14.2303 14.6609C15.4034 13.542 16.1197 12.305 16.4335 10.8529C17.34 6.67294 14.7704 2.75115 10.5737 1.92098C8.63712 1.53783 6.81991 1.90988 5.16513 2.98715C4.82223 3.21066 4.63204 3.22732 4.37105 2.87054C3.58947 1.80576 3.5742 1.81687 4.74727 1.16023C10.4793 -2.04522 17.7218 1.73635 18.3645 8.27219C18.856 13.2629 15.4131 17.6484 10.2961 18.3203C5.43028 18.9589 1.0712 15.6549 0.173011 10.9196C-0.287886 8.48876 0.174399 6.20649 1.5321 4.11718C1.77088 3.75069 1.95551 3.66462 2.33867 3.96586C3.22298 4.66137 3.23964 4.64055 2.70933 5.60677C1.16283 8.42767 1.57791 11.8636 3.74912 14.2458C3.85324 14.3596 3.92821 14.5012 4.01566 14.6303C4.06981 14.604 4.12534 14.5762 4.17948 14.5498C4.17948 14.0417 4.18225 13.535 4.17948 13.0269C4.17254 11.8067 4.69313 10.8918 5.77457 10.3226C6.03972 10.1824 6.0897 10.0672 6.00779 9.76455C5.7121 8.66229 5.73292 7.51976 5.93699 6.42028C6.19382 5.04592 7.38632 4.20187 8.79955 4.1741C9.76299 4.15467 10.7098 4.15744 11.4997 4.84046C12.1646 5.41519 12.57 6.12458 12.5534 7.0075C12.5353 7.98621 12.7297 8.98436 12.3493 9.93947C12.266 10.1491 12.427 10.2102 12.5672 10.2824C13.7597 10.896 14.2775 11.8899 14.2303 13.2102C14.2165 13.653 14.2303 14.0973 14.2303 14.6609ZM9.2063 11.7359C8.58298 11.7359 7.95966 11.7234 7.33773 11.7386C6.39928 11.7622 5.94254 12.2204 5.92172 13.1616C5.90506 13.9223 5.92866 14.6845 5.912 15.4452C5.90645 15.7506 6.02167 15.92 6.3021 16.0338C8.2387 16.8196 10.1711 16.821 12.1077 16.0352C12.3895 15.9214 12.5034 15.7506 12.4978 15.4466C12.4826 14.6859 12.5048 13.9237 12.4895 13.163C12.4687 12.2204 12.0133 11.7636 11.0749 11.7386C10.4529 11.722 9.82962 11.7359 9.2063 11.7359ZM10.8319 7.94873C10.8292 7.94873 10.8264 7.94873 10.8236 7.94873C10.8236 7.68913 10.843 7.42814 10.8194 7.16993C10.75 6.40917 10.353 6.00519 9.60056 5.92745C9.34374 5.90107 9.07997 5.90107 8.82315 5.92606C8.06517 5.99825 7.65008 6.39806 7.59594 7.15743C7.55846 7.69191 7.56401 8.23193 7.59733 8.7664C7.62787 9.25784 7.83749 9.67154 8.33171 9.87145C9.78103 10.4573 10.8305 9.75761 10.8319 8.20833C10.8319 8.12226 10.8319 8.03619 10.8319 7.94873Z" fill="#00305F" fill-opacity="0.6"/>
<path d="M36.6856 19.8334C36.4052 21.5563 36.1039 23.2777 35.8499 25.0046C35.5931 26.7483 35.1141 28.4197 34.3561 30.0079C33.1095 32.6205 31.3103 34.7862 28.9892 36.5118C27.9064 37.317 26.7958 38.0874 25.6921 38.8635C25.0966 39.2827 24.8023 39.2827 24.2345 38.8621C22.5949 37.646 20.8499 36.5687 19.3576 35.1596C16.5866 32.5428 14.843 29.3637 14.1725 25.6113C13.8449 23.7733 13.5714 21.9255 13.2701 20.0833C13.1535 19.3712 13.3062 19.0505 13.9656 18.7631C17.4696 17.2319 20.9776 15.7076 24.483 14.1777C24.8064 14.0361 25.116 14.0389 25.4353 14.1791C28.9711 15.7242 32.5084 17.268 36.047 18.8089C36.5037 19.006 36.7203 19.3337 36.6856 19.8334ZM34.7684 20.4984C34.8448 20.2166 34.656 20.1319 34.4533 20.0445C31.4214 18.7256 28.3909 17.4054 25.3603 16.081C25.1104 15.9714 24.8911 15.938 24.6204 16.056C21.626 17.3735 18.6287 18.6854 15.6218 19.9737C15.1915 20.1583 15.1123 20.3985 15.1859 20.8163C15.4011 22.0421 15.6107 23.2707 15.7842 24.5035C16.1827 27.3244 17.2225 29.8621 18.9689 32.1263C20.5556 34.1851 22.7032 35.5608 24.7592 37.056C24.9702 37.2087 25.1104 37.1032 25.2687 36.9921C25.8615 36.5715 26.4487 36.1411 27.0484 35.7302C29.2682 34.2087 31.0729 32.3179 32.3959 29.9537C34.0466 27.0079 34.1659 23.6955 34.7684 20.4984Z" fill="#00305F" fill-opacity="0.6"/>
<path d="M11.7355 25.0257C11.7355 25.8656 11.7355 25.8656 10.8872 25.8656C9.71001 25.8656 8.53139 25.8865 7.35555 25.8559C6.88216 25.8434 6.62534 25.9711 6.41849 26.4348C5.81599 27.7828 4.50411 28.4811 2.98676 28.3492C1.70402 28.2367 0.529569 27.2455 0.139473 25.9434C-0.356129 24.2928 0.505969 22.5325 2.13993 21.8592C3.70725 21.2122 5.6147 21.8786 6.34491 23.4265C6.62673 24.0248 6.96546 24.1678 7.56657 24.1428C8.65495 24.0984 9.7475 24.1276 10.8387 24.1317C11.8188 24.1359 11.7285 24.0456 11.7355 25.0257ZM3.35881 26.6083C4.22923 26.6125 4.98027 25.8726 4.99554 24.9952C5.01081 24.1442 4.23756 23.3848 3.35881 23.3862C2.56473 23.3876 1.79426 24.147 1.77343 24.948C1.75122 25.8143 2.50504 26.6042 3.35881 26.6083Z" fill="#00305F" fill-opacity="0.6"/>
<path d="M24.1326 9.1358C24.1326 8.52914 24.1007 7.92109 24.1423 7.31859C24.1743 6.84936 24.0077 6.62586 23.5787 6.42317C22.3473 5.84566 21.6754 4.84891 21.6435 3.47177C21.6116 2.0752 22.239 1.03263 23.4649 0.387097C25.1197 -0.48333 27.1576 0.185802 28.0016 1.8392C28.8624 3.52452 28.2113 5.58884 26.4982 6.38708C25.9748 6.63002 25.8429 6.91461 25.8596 7.44353C25.8957 8.67212 25.8568 9.90211 25.879 11.1307C25.886 11.5624 25.7832 11.7568 25.3043 11.7415C23.9341 11.6985 24.159 11.8915 24.1368 10.5893C24.1257 10.1048 24.1326 9.62029 24.1326 9.1358ZM26.612 3.35377C26.6051 2.5 25.8124 1.74619 24.9475 1.77117C24.1451 1.79477 23.3885 2.56525 23.3885 3.36071C23.3885 4.24086 24.1493 5.01133 25.0003 4.99328C25.879 4.97524 26.619 4.22142 26.612 3.35377Z" fill="#00305F" fill-opacity="0.6"/>
<path d="M40.7971 25.8639C40.1044 25.8639 39.4117 25.8542 38.7189 25.8681C38.3844 25.875 38.258 25.7418 38.2636 25.41C38.2844 23.869 38.0984 24.155 39.4547 24.1342C40.5278 24.1175 41.6023 24.1078 42.674 24.1411C43.1349 24.155 43.3737 24.0217 43.5709 23.5817C44.19 22.1976 45.5352 21.4868 47.0928 21.6506C48.3811 21.7853 49.5514 22.8445 49.886 24.1786C50.3108 25.8723 49.3945 27.5798 47.7384 28.1809C46.1544 28.7556 44.3288 28.0463 43.6153 26.4998C43.3765 25.9819 43.0975 25.8153 42.5616 25.8556C41.9758 25.8986 41.3844 25.8653 40.7958 25.8653C40.7971 25.8653 40.7971 25.8653 40.7971 25.8639ZM48.227 25.0338C48.2367 24.1633 47.4774 23.3818 46.6264 23.3887C45.7559 23.3943 45.0063 24.1467 45.0035 25.0171C45.0007 25.8542 45.731 26.5803 46.6042 26.6094C47.4121 26.6358 48.2173 25.8542 48.227 25.0338Z" fill="#00305F" fill-opacity="0.6"/>
<path d="M28.3673 46.6115C28.359 48.2885 27.1457 49.7156 25.5228 49.9516C23.868 50.1918 22.2785 49.2103 21.7829 47.643C21.2734 46.0284 21.9967 44.2959 23.539 43.5907C24.0096 43.3755 24.1929 43.1256 24.1443 42.6175C24.0985 42.1372 24.1415 41.6485 24.1346 41.1641C24.1304 40.8836 24.2456 40.7753 24.5316 40.7531C25.8712 40.649 25.8699 40.6421 25.8699 41.9901C25.8699 42.0595 25.8782 42.1303 25.8685 42.1983C25.7699 42.9299 25.9601 43.3852 26.725 43.7531C27.8453 44.2945 28.3534 45.3524 28.3673 46.6115ZM26.6126 46.6115C26.5904 45.7216 25.8227 44.9664 24.9758 45.0025C24.0957 45.04 23.3613 45.8119 23.3905 46.6684C23.4182 47.5111 24.1734 48.2274 25.0286 48.2246C25.8463 48.2219 26.632 47.4209 26.6126 46.6115Z" fill="#00305F" fill-opacity="0.6"/>
<path d="M18.3152 25.8375C18.3152 25.3183 18.3083 24.7991 18.3166 24.2799C18.3277 23.6038 18.6262 23.3081 19.312 23.3026C20.1768 23.2942 21.0431 23.2818 21.908 23.3081C22.3286 23.3206 22.4938 23.1971 22.4785 22.7542C22.4494 21.8893 22.4647 21.0231 22.473 20.1582C22.4785 19.4446 22.7715 19.1517 23.4864 19.1462C24.5082 19.1392 25.5285 19.1378 26.5503 19.1476C27.2249 19.1531 27.522 19.4571 27.529 20.1415C27.5373 21.0064 27.5498 21.8727 27.5248 22.7376C27.5123 23.1568 27.6345 23.3248 28.0773 23.3095C28.9422 23.2804 29.8085 23.2956 30.6733 23.304C31.3869 23.3095 31.6812 23.6038 31.6868 24.3174C31.6937 25.3391 31.6951 26.3595 31.6854 27.3812C31.6798 28.0559 31.3744 28.3544 30.6914 28.3599C29.8265 28.3683 28.9602 28.3808 28.0954 28.3544C27.6747 28.3419 27.5095 28.4654 27.5234 28.9083C27.5526 29.7732 27.5373 30.6394 27.529 31.5043C27.5234 32.2165 27.2277 32.5108 26.5142 32.5163C25.4924 32.5233 24.4721 32.5247 23.4503 32.5149C22.7756 32.5094 22.4785 32.204 22.473 31.5196C22.4647 30.6547 22.4522 29.7884 22.4785 28.9236C22.491 28.5015 22.3661 28.3377 21.9233 28.353C21.0584 28.3822 20.1921 28.3669 19.3272 28.3586C18.6151 28.353 18.3277 28.0587 18.3138 27.3437C18.3138 27.3271 18.3138 27.309 18.3138 27.2924C18.3152 26.8065 18.3152 26.322 18.3152 25.8375ZM21.8913 26.6232V26.6246C22.3411 26.6246 22.7909 26.6177 23.2407 26.626C23.889 26.6399 24.193 26.9384 24.2027 27.5839C24.2139 28.2933 24.1986 29.0027 24.2083 29.7121C24.2236 30.9226 24.0167 30.7519 25.2842 30.788C25.7173 30.8005 25.8117 30.6228 25.8034 30.2355C25.784 29.3539 25.7909 28.471 25.8006 27.5895C25.8076 26.9398 26.1102 26.6371 26.7571 26.6274C27.4665 26.6163 28.1759 26.6316 28.8853 26.6219C30.0972 26.6066 29.9251 26.8134 29.9626 25.5474C29.9751 25.1142 29.7987 25.0184 29.4114 25.0282C28.5299 25.049 27.647 25.042 26.7654 25.0309C26.1157 25.024 25.8117 24.7214 25.802 24.0744C25.7909 23.365 25.8062 22.6557 25.7964 21.9463C25.7812 20.7343 25.988 20.9065 24.7219 20.869C24.2888 20.8565 24.193 21.0328 24.2027 21.4201C24.2236 22.3017 24.2166 23.1846 24.2055 24.0661C24.1972 24.7144 23.8946 25.0184 23.249 25.0295C22.5577 25.0407 21.8649 25.0226 21.1736 25.0351C19.9034 25.0587 20.0699 24.7741 20.0505 26.2137C20.0463 26.5413 20.1963 26.633 20.4934 26.6246C20.957 26.6149 21.4249 26.6232 21.8913 26.6232Z" fill="#00305F" fill-opacity="0.6"/>
</svg>
