<?xml version="1.0" standalone="no"?>
<!DOCTYPE svg PUBLIC "-//W3C//DTD SVG 20010904//EN"
 "http://www.w3.org/TR/2001/REC-SVG-20010904/DTD/svg10.dtd">
<svg version="1.0" xmlns="http://www.w3.org/2000/svg"
 width="112" height="112" viewBox="0 0 512.000000 512.000000"
 preserveAspectRatio="xMidYMid meet">
<metadata>
Created by potrace 1.16, written by Peter Selinger 2001-2019
</metadata>
<g transform="translate(0.000000,512.000000) scale(0.100000,-0.100000)"
fill="#00305F" stroke="none">
<path d="M2980 4777 c-90 -31 -150 -68 -230 -143 -117 -110 -220 -261 -220
-321 0 -56 58 -95 111 -74 16 6 48 42 82 93 31 46 76 106 101 133 l46 50 -45
-108 c-84 -204 -141 -413 -177 -652 -10 -67 -13 -226 -13 -615 0 -609 -3 -585
107 -854 l63 -151 0 -110 c0 -133 -18 -192 -77 -260 -67 -76 -166 -111 -289
-103 -88 7 -185 52 -229 107 -57 73 -92 163 -97 256 -7 104 4 149 68 288 65
140 87 229 99 401 30 408 119 842 244 1191 20 55 36 108 36 117 0 77 -95 114
-148 58 -40 -43 -177 -518 -227 -785 -14 -77 -28 -150 -31 -162 l-4 -23 -350
0 -350 0 0 24 c0 43 29 190 55 281 36 125 124 341 206 507 75 153 78 174 31
217 -34 31 -71 25 -189 -34 -246 -122 -453 -343 -589 -629 -47 -100 -124 -319
-124 -353 0 -10 -42 -13 -215 -13 -216 0 -216 0 -240 -25 -17 -16 -25 -35 -25
-60 0 -25 8 -44 25 -60 l24 -25 860 0 860 0 -5 -32 c-2 -18 -8 -96 -14 -173
-9 -129 -27 -236 -44 -252 -4 -4 -48 14 -99 39 -139 70 -154 73 -317 73 -164
0 -220 -14 -340 -84 -181 -106 -311 -105 -540 4 -151 72 -194 84 -296 85 -61
0 -73 -3 -92 -23 -29 -30 -30 -89 -2 -117 22 -22 38 -26 130 -34 53 -5 88 -17
187 -66 143 -71 223 -91 353 -91 123 0 207 21 327 82 135 70 186 82 306 77 97
-5 103 -7 204 -58 81 -42 102 -57 97 -69 -46 -104 -57 -288 -24 -415 26 -105
63 -168 140 -247 112 -113 228 -155 400 -147 266 14 431 161 471 421 21 133
-7 312 -70 450 l-30 67 32 0 c55 0 128 -25 242 -82 139 -70 192 -83 330 -82
133 1 195 17 321 84 107 58 183 80 279 80 98 -1 144 -13 265 -75 119 -60 184
-81 281 -90 100 -10 139 15 139 89 0 49 -32 73 -110 81 -88 9 -146 28 -270 91
-122 61 -175 74 -308 74 -127 0 -207 -20 -317 -79 -213 -115 -333 -116 -565
-6 -165 78 -163 77 -280 84 l-95 6 -7 40 c-4 22 -7 97 -7 168 l-1 127 955 0
956 0 24 25 c34 33 34 87 0 120 l-24 25 -372 0 -371 0 7 58 c25 208 119 481
271 784 61 122 64 151 17 188 -35 27 -55 25 -144 -13 -337 -148 -617 -497
-735 -917 l-27 -100 -280 0 -279 0 5 268 c6 298 23 442 78 654 59 226 139 414
245 575 62 93 69 135 31 171 -31 29 -91 29 -177 -1z m-1525 -995 c-90 -215
-148 -412 -167 -569 l-12 -103 -128 0 c-103 0 -128 3 -128 14 0 30 74 225 116
306 81 158 184 295 287 381 32 27 60 49 62 49 2 0 -12 -35 -30 -78z m2505 -41
c-88 -215 -139 -401 -155 -563 l-7 -68 -130 0 -130 0 7 33 c14 65 87 244 135
332 50 90 107 172 165 236 33 36 154 149 160 149 2 0 -18 -53 -45 -119z"/>
<path d="M1548 2176 c-24 -18 -39 -63 -32 -92 9 -33 41 -54 85 -54 71 0 105
85 54 135 -27 28 -79 33 -107 11z"/>
<path d="M3374 2178 c-24 -11 -44 -48 -44 -78 0 -10 11 -31 24 -46 47 -56 146
-20 146 52 0 33 -51 84 -82 83 -13 0 -33 -5 -44 -11z"/>
<path d="M919 2171 c-210 -41 -263 -326 -82 -441 118 -75 275 -32 337 92 47
93 32 205 -37 276 -58 61 -139 88 -218 73z m96 -191 c24 -27 16 -79 -17 -103
-23 -17 -31 -18 -57 -8 -42 18 -59 63 -37 96 30 45 78 51 111 15z"/>
<path d="M3945 2147 c-90 -43 -135 -116 -135 -217 0 -112 62 -195 169 -226
234 -69 413 217 245 390 -49 51 -89 68 -164 73 -54 3 -74 0 -115 -20z m154
-173 c12 -15 21 -35 21 -46 0 -26 -44 -68 -71 -68 -32 0 -69 38 -69 72 0 64
80 92 119 42z"/>
<path d="M1655 1696 c-91 -43 -136 -113 -136 -215 -1 -99 51 -182 136 -222 48
-22 142 -25 189 -5 48 20 107 75 127 121 22 48 25 151 6 198 -52 124 -201 180
-322 123z m145 -166 c40 -40 12 -120 -41 -120 -56 0 -89 51 -64 100 23 44 71
54 105 20z"/>
<path d="M3214 1710 c-65 -9 -130 -54 -164 -113 -25 -43 -30 -63 -30 -117 0
-80 22 -132 77 -181 52 -47 100 -62 178 -57 226 14 306 300 120 430 -45 32
-118 47 -181 38z m70 -171 c13 -7 30 -25 37 -41 10 -25 9 -33 -8 -56 -25 -33
-76 -41 -104 -16 -29 26 -25 78 7 103 31 24 35 25 68 10z"/>
<path d="M1012 1497 c-48 -51 -12 -137 57 -137 49 0 81 32 81 83 0 49 -28 77
-78 77 -27 0 -45 -7 -60 -23z"/>
<path d="M3886 1499 c-20 -16 -26 -29 -26 -60 0 -52 27 -79 80 -79 53 0 80 27
80 79 0 46 -35 81 -80 81 -15 0 -39 -9 -54 -21z"/>
<path d="M900 1149 c-25 -5 -106 -38 -180 -74 -115 -55 -149 -67 -230 -79 -75
-11 -98 -18 -112 -36 -23 -29 -23 -82 1 -111 17 -21 28 -24 88 -24 103 1 186
23 299 81 117 61 196 84 280 84 87 -1 136 -15 264 -75 145 -69 219 -88 340
-89 124 0 214 23 338 87 117 60 175 77 267 77 98 -1 144 -13 270 -76 137 -67
213 -87 335 -88 123 0 214 23 333 84 116 60 183 80 263 80 98 0 160 -17 275
-75 154 -78 200 -90 349 -89 142 1 199 15 324 84 96 53 144 69 240 79 64 7 84
14 98 31 26 32 23 86 -7 115 -20 21 -33 25 -87 25 -95 0 -177 -24 -296 -85
-223 -114 -344 -111 -583 12 -110 57 -176 73 -303 73 -123 0 -191 -18 -334
-89 -216 -106 -325 -106 -537 -1 -145 72 -211 90 -331 90 -133 0 -184 -13
-334 -85 -230 -110 -337 -111 -549 -4 -64 32 -143 65 -176 74 -65 16 -229 19
-305 4z"/>
<path d="M382 457 c-30 -32 -29 -87 1 -115 l23 -22 2155 0 2156 0 21 23 c30
32 29 87 -1 115 l-23 22 -2155 0 -2156 0 -21 -23z"/>
</g>
</svg>
