<svg width="92" height="107" viewBox="0 0 92 107" fill="none" xmlns="http://www.w3.org/2000/svg">
<path d="M59.6192 10.2589C55.3955 10.2589 51.2877 11.3156 47.413 13.3999C41.9108 16.3596 38.535 21.9165 37.9613 28.1984C31.1312 21.1539 27.2736 11.6986 27.2736 1.70982V0H17.0592V1.70982C17.0592 18.119 25.1694 33.1227 38.7801 42.0855C38.3562 43.6261 37.6208 45.0196 36.5551 46.0643L35.6205 46.9808L36.2589 48.1246C37.0641 49.5609 37.488 51.2502 37.488 53.0045C37.488 54.7587 37.0641 56.448 36.2606 57.8843L35.6222 59.0281L36.5568 59.9446C38.2302 61.5877 39.1904 64.0413 39.1904 66.683C39.1904 67.6918 39.0508 68.6767 38.7563 69.682C37.8046 72.9495 34.771 75.2321 31.3815 75.2321H28.976C13.0177 75.2321 0.0351562 88.2712 0.0351562 104.299V106.009H13.3479L13.622 104.634C15.4351 95.5226 23.467 88.9107 32.7179 88.9107H35.2119C39.3794 88.9107 43.1791 89.9434 46.2026 91.896C46.5924 92.1457 46.9959 92.385 47.4113 92.609C51.2877 94.6933 55.3955 95.75 59.6192 95.75C77.4553 95.75 91.9648 76.5743 91.9648 53.0045C91.9648 29.4346 77.4553 10.2589 59.6192 10.2589ZM20.4963 3.41964H23.9045C24.3676 14.843 29.4629 25.4934 38.0532 32.9756C38.203 34.1109 38.4413 35.2565 38.7767 36.3987C38.9469 36.9783 39.0457 37.5836 39.1121 38.1957C27.8422 30.0997 21.0121 17.3769 20.4963 3.41964ZM59.6192 92.3303C55.9625 92.3303 52.3959 91.4104 49.0184 89.5929C48.683 89.4134 48.3561 89.2202 48.0446 89.0184C44.4712 86.7119 40.0348 85.4911 35.2136 85.4911H32.7196C22.323 85.4911 13.2356 92.6005 10.602 102.589H3.49614C4.37628 89.2407 15.4674 78.6518 28.976 78.6518H31.3815C36.2742 78.6518 40.6493 75.3587 42.0419 70.5797C42.4096 69.3298 42.5952 68.0184 42.5952 66.683C42.5952 63.5848 41.584 60.6473 39.7862 58.4348C40.5132 56.7609 40.8928 54.9058 40.8928 53.0045C40.8928 51.1031 40.5132 49.248 39.7862 47.5741C41.584 45.3615 42.5952 42.4241 42.5952 39.3259C42.5952 37.9905 42.4096 36.6791 42.0419 35.4292C39.7641 27.67 42.6343 19.851 49.0201 16.416C52.3959 14.5985 55.9625 13.6786 59.6192 13.6786C75.5775 13.6786 88.56 31.3188 88.56 53.0045C88.56 74.6901 75.5775 92.3303 59.6192 92.3303Z" fill="#00305F"/>
</svg>
