<svg width="14" height="12" viewBox="0 0 14 12" fill="none" xmlns="http://www.w3.org/2000/svg">
<path d="M7.48688 9.58525C7.44722 9.55881 7.3944 9.56404 7.3607 9.59775L5.5746 11.3838L5.57457 11.3838L5.57284 11.3856C5.44888 11.516 5.26899 11.5848 5.0839 11.5644C4.83999 11.5377 4.63855 11.3619 4.57904 11.1238L3.63465 7.34626C3.62686 7.3151 3.60459 7.28959 3.57478 7.27766L0.468582 6.03519C0.245017 5.94576 0.0988493 5.72874 0.100007 5.48796C0.101164 5.24717 0.249412 5.03157 0.473827 4.9443L12.8281 0.13988C13.0308 0.0610418 13.2605 0.100908 13.4248 0.243445C13.5891 0.385983 13.661 0.607765 13.6116 0.819592L11.2094 11.1148C11.1657 11.3021 11.0329 11.456 10.8541 11.5268C10.6753 11.5975 10.4731 11.5761 10.3131 11.4694L7.48688 9.58525ZM5.98724 7.99177L5.98728 7.99179L5.98849 7.98917C6.00288 7.95818 6.02006 7.9283 6.03993 7.89991L7.06085 6.44146C7.08647 6.40486 7.08471 6.35571 7.05653 6.32104C7.02835 6.28637 6.9806 6.2746 6.93954 6.2922L4.88655 7.17205C4.84143 7.19138 4.81702 7.2406 4.82892 7.28822L5.26672 9.03942C5.27687 9.08002 5.31123 9.11 5.35283 9.11457C5.39442 9.11914 5.43447 9.09732 5.45318 9.05989L5.98724 7.99177ZM2.52063 5.40657C2.48235 5.42145 2.45707 5.45822 2.45687 5.49929C2.45667 5.54035 2.4816 5.57737 2.51973 5.59262L4.07188 6.21348C4.0965 6.22333 4.12403 6.22299 4.14841 6.21254L8.69152 4.2655C8.93229 4.16231 9.21229 4.23134 9.37751 4.43461C9.54272 4.63788 9.55306 4.92608 9.40285 5.14068L7.40328 7.99721C7.38784 8.01926 7.38195 8.0466 7.38693 8.07305C7.3919 8.0995 7.40734 8.12283 7.42973 8.13776L10.1395 9.9443C10.1668 9.96249 10.2013 9.96615 10.2318 9.95408C10.2623 9.94201 10.2849 9.91576 10.2924 9.88382L12.1739 1.82042C12.1823 1.7843 12.17 1.74647 12.142 1.72216C12.114 1.69785 12.0748 1.69106 12.0402 1.7045L2.52063 5.40657Z" fill="#00305F" stroke="white" stroke-width="0.2" stroke-linejoin="round"/>
</svg>
