<?xml version="1.0" standalone="no"?>
<!DOCTYPE svg PUBLIC "-//W3C//DTD SVG 20010904//EN"
 "http://www.w3.org/TR/2001/REC-SVG-20010904/DTD/svg10.dtd">
<svg version="1.0" xmlns="http://www.w3.org/2000/svg"
 width="112" height="112" viewBox="0 0 512.000000 512.000000"
 preserveAspectRatio="xMidYMid meet">
<metadata>
Created by potrace 1.16, written by Peter Selinger 2001-2019
</metadata>
<g transform="translate(0.000000,512.000000) scale(0.100000,-0.100000)"
fill="#00305F" stroke="none">
<path d="M2229 5105 c-427 -69 -744 -225 -996 -488 -313 -328 -472 -808 -449
-1352 10 -217 20 -286 46 -307 32 -26 94 -24 120 4 24 26 24 24 8 244 -39 557
118 1031 445 1340 207 196 483 327 812 383 141 25 296 32 423 22 707 -61 1266
-515 1497 -1216 115 -347 113 -553 -10 -920 -128 -385 -358 -842 -740 -1470
-83 -137 -182 -304 -219 -370 -275 -488 -510 -698 -874 -781 -306 -69 -599 6
-819 210 -123 115 -200 248 -250 431 -25 93 -27 115 -27 307 -1 198 -2 208
-22 229 -30 29 -88 30 -116 1 -26 -26 -36 -90 -37 -247 -4 -441 174 -783 509
-981 267 -158 599 -188 923 -84 352 113 592 346 872 845 43 77 140 239 216
360 566 907 851 1584 851 2025 0 241 -105 599 -253 865 -276 497 -706 815
-1263 937 -121 26 -516 34 -647 13z"/>
<path d="M2495 4469 c-184 -23 -383 -96 -529 -193 -356 -237 -502 -636 -396
-1084 56 -235 188 -429 377 -555 102 -68 174 -61 189 17 8 48 -5 67 -94 129
-191 134 -302 334 -332 597 -16 138 18 349 57 365 10 4 59 9 109 12 222 14
511 -76 743 -231 247 -165 365 -340 333 -492 -22 -107 -78 -196 -284 -451
-133 -165 -261 -357 -319 -478 -27 -55 -86 -215 -132 -355 -116 -353 -128
-375 -219 -402 -65 -19 -122 1 -187 67 -63 65 -104 73 -146 30 -73 -72 34
-213 199 -260 156 -45 321 28 396 176 12 23 62 164 111 313 54 162 110 310
139 370 63 124 170 280 320 466 192 238 251 335 285 465 48 187 -9 342 -194
525 -121 120 -233 198 -395 276 -196 94 -360 138 -571 152 l-109 7 75 76 c159
163 368 261 622 289 167 19 345 -18 507 -107 333 -181 565 -547 587 -923 7
-129 -6 -215 -58 -374 -85 -259 -233 -530 -599 -1091 -251 -385 -255 -394
-210 -443 44 -47 103 -36 146 25 48 70 346 536 449 703 303 490 445 849 445
1124 0 88 -24 247 -51 344 -119 424 -473 782 -876 887 -125 33 -254 40 -388
24z"/>
</g>
</svg>
