<svg width="34" height="50" viewBox="0 0 34 50" fill="none" xmlns="http://www.w3.org/2000/svg">
<path d="M1.4102 50C0.421917 49.624 -0.00484141 48.915 4.14031e-05 47.8516C0.0205492 42.9043 0.00590137 37.957 0.00980762 33.0098C0.0117607 30.0244 1.54985 27.7744 4.33793 26.6836C6.8975 25.6816 9.46 24.6855 12.0293 23.708C12.4512 23.5479 12.7032 23.3516 12.6172 22.8691C12.5977 22.7588 12.6006 22.6396 12.6163 22.5283C12.708 21.8945 12.4756 21.4619 11.9776 21.0234C10.9131 20.0889 10.25 18.873 9.98051 17.4717C9.90922 17.1025 9.74809 16.9355 9.38383 16.8311C7.85551 16.3926 6.90922 15.1416 6.94633 13.6875C6.95903 13.1982 7.11332 12.752 7.38188 12.3613C7.59965 12.0459 7.66508 11.7236 7.66215 11.3545C7.65434 10.1191 7.61723 8.88184 7.81059 7.6543C8.41606 3.80371 11.375 0.790039 15.2413 0.0810547C15.3516 0.0605469 15.46 0.0273438 15.5694 0C16.3829 0 17.1973 0 18.0108 0C19.6182 0.291016 21.1133 0.847656 22.4034 1.87695C24.6329 3.6543 25.8038 5.97559 25.9385 8.81836C25.9649 9.37012 25.9581 9.9248 25.9444 10.4775C25.9258 11.2266 26.0108 11.9062 26.3916 12.6133C27.2188 14.1465 26.3418 16.0879 24.5752 16.7012C23.9551 16.916 23.6973 17.2139 23.5538 17.8389C23.2598 19.1191 22.5752 20.2119 21.5918 21.0898C21.2676 21.3789 21.1485 21.6797 21.1543 22.1045C21.1729 23.4639 21.1582 23.4668 22.4473 23.9678C24.7969 24.8809 27.1485 25.7881 29.4961 26.7051C32.3955 27.8379 34.0147 30.4375 33.7696 33.5479C33.7315 34.0361 33.4424 34.3418 33.0176 34.3457C32.5801 34.3496 32.2461 34.0195 32.2422 33.5176C32.2344 32.4004 32.1436 31.3154 31.5235 30.3301C30.9229 29.376 30.1358 28.6475 29.0909 28.2314C27.2774 27.5098 25.4522 26.8193 23.6338 26.1123C23.42 26.0293 23.2539 25.9834 23.0977 26.2314C22.0088 27.9561 20.3233 28.7383 18.4082 29.082C16.0411 29.5078 13.8497 29.0361 11.8955 27.6006C11.42 27.251 11.0215 26.8174 10.7247 26.3057C10.5704 26.0391 10.4092 26.002 10.1289 26.1123C8.28325 26.8408 6.40629 27.4941 4.58989 28.2871C2.55278 29.1768 1.57231 30.8408 1.54692 33.0449C1.52055 35.3711 1.54692 37.6982 1.53324 40.0244C1.53129 40.3945 1.66508 40.501 2.0186 40.4961C3.09184 40.4795 4.16606 40.4844 5.24028 40.4932C6.35453 40.502 7.08598 41.1289 7.21293 42.2393C7.35063 43.4375 7.24516 44.6445 7.26664 45.8467C7.27836 46.5459 7.28813 47.2461 7.26176 47.9453C7.24614 48.3672 7.38578 48.5117 7.8184 48.5088C10.1934 48.4912 12.5694 48.5029 14.9444 48.498C15.3213 48.4971 15.6622 48.541 15.8614 48.915C16.1036 49.3691 15.8487 49.6875 15.5674 49.999C10.8506 50 6.12992 50 1.4102 50ZM22.2696 13.7031C22.2696 12.8271 22.2461 12.1113 22.2784 11.3975C22.2979 10.957 22.1748 10.6182 21.8584 10.3125C21.4854 9.95117 21.126 9.57129 20.7959 9.1709C20.5635 8.88867 20.375 8.87305 20.0606 9.05664C17.5391 10.5293 14.836 11.3516 11.8926 11.2607C11.5059 11.249 11.3819 11.3799 11.3868 11.7617C11.4034 13.0947 11.3916 14.4277 11.3936 15.7607C11.3975 18.7559 13.17 20.8359 16.1319 21.3252C19.0713 21.8105 21.9649 19.5273 22.208 16.5635C22.2901 15.5547 22.2403 14.5488 22.2696 13.7031ZM24.3497 9.3457C24.3545 9.3457 24.3584 9.3457 24.3633 9.34473C24.3448 8.92188 24.3584 8.49512 24.3018 8.07812C23.7627 4.12305 20.2461 1.21582 16.2129 1.57031C13.4219 1.81641 11.4063 3.23633 10.083 5.66406C9.29203 7.11426 9.1934 8.70508 9.25883 10.3145C9.26567 10.4854 9.13285 10.751 9.39848 10.8105C9.62797 10.8613 9.84184 10.7432 9.95121 10.502C10.2334 9.88086 10.7608 9.68262 11.3897 9.70801C14.3213 9.82715 17.0196 9.0791 19.5196 7.56152C20.4375 7.00391 20.9786 7.08105 21.7227 7.85449C22.2188 8.37012 22.709 8.89258 23.1836 9.42871C23.461 9.74121 23.7774 10.04 23.8106 10.5029C23.8262 10.7168 24.0079 10.7588 24.169 10.7539C24.3868 10.7471 24.3428 10.5527 24.3457 10.418C24.3555 10.0615 24.3497 9.70312 24.3497 9.3457ZM5.6768 45.3252C5.6768 44.4307 5.66996 43.5352 5.67973 42.6406C5.68364 42.2402 5.52641 42.0254 5.11039 42.0264C4.05278 42.0283 2.99516 42.0332 1.93754 42.0225C1.64067 42.0195 1.53813 42.1377 1.5391 42.4277C1.54692 44.2334 1.54496 46.04 1.54203 47.8457C1.54106 48.292 1.75004 48.502 2.19633 48.5C3.20512 48.4951 4.21391 48.4854 5.2227 48.5059C5.60649 48.5137 5.68852 48.3477 5.68266 48.0078C5.66703 47.1152 5.67778 46.2197 5.6768 45.3252ZM16.6202 27.6377C17.3584 27.627 17.8604 27.6211 18.3565 27.5088C19.5352 27.2422 20.6202 26.7998 21.4434 25.8682C21.5567 25.7402 21.7266 25.6113 21.6465 25.4072C21.5547 25.1719 20.5811 24.959 20.3819 25.1348C18.3897 26.8965 15.3741 26.8838 13.4659 25.1719C13.3604 25.0771 13.2442 24.9414 13.085 24.9961C12.753 25.1123 12.2891 25.124 12.1524 25.4355C12.0332 25.7061 12.3887 25.9688 12.6202 26.1631C13.8448 27.1865 15.2705 27.6387 16.6202 27.6377ZM19.5665 23.2012C19.5665 23.0068 19.5645 22.876 19.5674 22.7461C19.5723 22.5342 19.4991 22.4414 19.2735 22.5225C17.7032 23.0898 16.125 23.082 14.542 22.5752C14.4346 22.541 14.3252 22.498 14.2442 22.6348C14.1045 22.8701 14.2559 23.7441 14.4786 23.9551C15.6797 25.0898 17.8174 25.1641 19.1114 24.1309C19.4395 23.8672 19.6612 23.582 19.5665 23.2012ZM23.8067 13.8359C23.8067 14.1924 23.8194 14.5498 23.8028 14.9053C23.7842 15.3066 23.9717 15.3115 24.2403 15.1465C24.7481 14.8359 25.1358 14.4316 25.1075 13.7861C25.0811 13.1758 24.7129 12.7803 24.21 12.4902C23.9502 12.3398 23.7871 12.3486 23.8028 12.7178C23.8184 13.0898 23.8067 13.4629 23.8067 13.8359ZM9.79106 13.8545C9.79106 13.498 9.78617 13.1406 9.79203 12.7842C9.79789 12.4658 9.6475 12.4063 9.40043 12.5557C8.92387 12.8428 8.53813 13.2148 8.5225 13.8135C8.5059 14.457 8.90336 14.8574 9.41508 15.1621C9.67485 15.3174 9.80278 15.2354 9.79399 14.9258C9.78422 14.5684 9.79204 14.2119 9.79106 13.8545Z" fill="#00305F" fill-opacity="0.6"/>
<path d="M18.3047 49.9998C17.9395 49.7664 17.7373 49.4568 17.8887 49.0145C18.0342 48.5887 18.3828 48.4998 18.7871 48.4998C21.1631 48.5027 23.5391 48.4891 25.915 48.5106C26.3945 48.5145 26.5283 48.3533 26.5215 47.8934C26.499 46.3152 26.5098 44.7361 26.5156 43.158C26.5166 42.8338 26.5371 42.5076 26.5732 42.1854C26.6826 41.2098 27.4277 40.5145 28.4043 40.4988C29.4941 40.4822 30.5859 40.4705 31.6748 40.5018C32.1416 40.5154 32.2578 40.3475 32.2451 39.911C32.2168 39.0008 32.2324 38.0887 32.2383 37.1776C32.2422 36.5945 32.5332 36.2332 32.9902 36.2205C33.4229 36.2088 33.7314 36.535 33.7969 37.0887C33.8193 37.282 33.8232 37.4783 33.8232 37.6727C33.8252 40.9442 33.8272 44.2147 33.8203 47.4861C33.8193 47.8426 33.8027 48.2059 33.7344 48.5545C33.5938 49.2723 33.0869 49.6932 32.4629 49.9998C27.7451 49.9998 23.0244 49.9998 18.3047 49.9998ZM32.2373 45.1834C32.2373 44.2733 32.2295 43.3641 32.2422 42.4549C32.2461 42.1443 32.1406 42.0184 31.8203 42.0223C30.7813 42.035 29.7412 42.0311 28.7012 42.0262C28.3008 42.0242 28.1016 42.1981 28.1025 42.6121C28.1074 44.4315 28.1084 46.2508 28.0996 48.0701C28.0977 48.3768 28.1934 48.5106 28.5186 48.5057C29.542 48.492 30.5654 48.5067 31.5889 48.4979C32.1133 48.493 32.2344 48.3582 32.2373 47.8162C32.2412 46.9373 32.2373 46.0604 32.2373 45.1834Z" fill="#00305F" fill-opacity="0.6"/>
<path d="M18.0801 35.2317C18.124 34.3186 18.5723 33.5677 19.457 33.1116C20.2959 32.679 21.1553 32.6487 21.958 33.1888C22.2725 33.4007 22.4736 33.4222 22.8047 33.2005C23.7539 32.5657 24.7314 32.6819 25.6357 33.304C26.4531 33.8665 26.7871 34.678 26.6631 35.6751C26.3652 38.0657 24.7676 39.3841 22.7861 40.3821C22.5459 40.5032 22.2695 40.5052 22.0254 40.389C20.2637 39.5452 18.8379 38.3753 18.2432 36.4202C18.1338 36.0608 18.0869 35.6888 18.0801 35.2317ZM25.1191 35.4407C25.1064 34.9827 24.9531 34.6204 24.5137 34.4622C24.0752 34.304 23.6963 34.4036 23.376 34.7698C22.667 35.5813 22.1016 35.5872 21.4111 34.7835C21.0937 34.4134 20.7178 34.3001 20.2803 34.4563C19.8223 34.6194 19.6621 34.9905 19.6826 35.4632C19.7324 36.6048 20.3691 37.4261 21.2207 38.0569C22.5078 39.011 22.2051 39.0569 23.5508 38.0638C23.7842 37.8909 24 37.6868 24.1943 37.471C24.7178 36.889 25.0732 36.2259 25.1191 35.4407Z" fill="#00305F" fill-opacity="0.6"/>
<path d="M16.8585 18.8615C15.8282 18.8615 14.7989 18.589 13.9776 18.0431C13.6407 17.8195 13.5489 17.3644 13.7725 17.0275C13.9961 16.6906 14.4512 16.5988 14.7881 16.8224C15.9297 17.5812 17.7881 17.5812 18.9297 16.8224C19.2667 16.5988 19.7217 16.6906 19.9454 17.0275C20.169 17.3644 20.0772 17.8185 19.7403 18.0431C18.919 18.589 17.8887 18.8615 16.8585 18.8615Z" fill="#00305F" fill-opacity="0.6"/>
<path d="M19.6066 14.1496C19.2199 14.1496 18.8342 14.0451 18.5187 13.8351C18.1818 13.6115 18.09 13.1564 18.3137 12.8195C18.5373 12.4826 18.9924 12.3908 19.3293 12.6144C19.467 12.7053 19.7472 12.7062 19.8849 12.6144C20.2219 12.3908 20.676 12.4826 20.9006 12.8195C21.1242 13.1564 21.0324 13.6115 20.6955 13.8351C20.3801 14.0451 19.9933 14.1496 19.6066 14.1496Z" fill="#00305F" fill-opacity="0.6"/>
<path d="M14.1105 14.1496C13.7238 14.1496 13.3381 14.0451 13.0226 13.8351C12.6857 13.6115 12.5939 13.1564 12.8176 12.8195C13.0412 12.4826 13.4963 12.3908 13.8332 12.6144C13.9709 12.7053 14.2512 12.7053 14.3888 12.6144C14.7258 12.3908 15.1808 12.4826 15.4045 12.8195C15.6281 13.1564 15.5363 13.6105 15.1994 13.8351C14.883 14.0451 14.4963 14.1496 14.1105 14.1496Z" fill="#00305F" fill-opacity="0.6"/>
</svg>
