<svg width="12" height="15" viewBox="0 0 12 15" fill="none" xmlns="http://www.w3.org/2000/svg">
<path d="M0.671875 14.668C0.671875 13.2535 1.23378 11.8969 2.23397 10.8967C3.23417 9.89654 4.59072 9.33464 6.00521 9.33464C7.4197 9.33464 8.77625 9.89654 9.77644 10.8967C10.7766 11.8969 11.3385 13.2535 11.3385 14.668H10.0052C10.0052 13.6071 9.58378 12.5897 8.83364 11.8395C8.08349 11.0894 7.06607 10.668 6.00521 10.668C4.94434 10.668 3.92693 11.0894 3.17678 11.8395C2.42664 12.5897 2.00521 13.6071 2.00521 14.668H0.671875ZM6.00521 8.66797C3.79521 8.66797 2.00521 6.87797 2.00521 4.66797C2.00521 2.45797 3.79521 0.667969 6.00521 0.667969C8.21521 0.667969 10.0052 2.45797 10.0052 4.66797C10.0052 6.87797 8.21521 8.66797 6.00521 8.66797ZM6.00521 7.33464C7.47854 7.33464 8.67187 6.1413 8.67187 4.66797C8.67187 3.19464 7.47854 2.0013 6.00521 2.0013C4.53187 2.0013 3.33854 3.19464 3.33854 4.66797C3.33854 6.1413 4.53187 7.33464 6.00521 7.33464Z" fill="#00305F"/>
</svg>
