<svg width="14" height="14" viewBox="0 0 14 14" fill="none" xmlns="http://www.w3.org/2000/svg">
<path d="M11.0155 10.0767L13.8708 12.9314L12.9275 13.8747L10.0728 11.0194C9.01062 11.8708 7.68946 12.334 6.32812 12.332C3.01613 12.332 0.328125 9.64403 0.328125 6.33203C0.328125 3.02003 3.01613 0.332031 6.32812 0.332031C9.64013 0.332031 12.3281 3.02003 12.3281 6.33203C12.3301 7.69337 11.8669 9.01452 11.0155 10.0767ZM9.67813 9.58203C10.5242 8.71196 10.9967 7.54565 10.9948 6.33203C10.9948 3.75336 8.90613 1.66536 6.32812 1.66536C3.74946 1.66536 1.66146 3.75336 1.66146 6.33203C1.66146 8.91003 3.74946 10.9987 6.32812 10.9987C7.54174 11.0006 8.70805 10.5281 9.57812 9.68203L9.67813 9.58203Z" fill="#00305F"/>
</svg>
