<svg width="116" height="116" viewBox="0 0 116 116" fill="none" xmlns="http://www.w3.org/2000/svg">
<path d="M40.7268 29.8149V89.5321C40.7268 93.1721 38.4468 96.5622 34.9403 97.5573C23.0477 100.943 21.2945 114 6.18048 114C-6.94713 62.467 13.2063 30.3749 33.9082 24.5121C37.337 23.5386 40.7268 26.2567 40.7268 29.8149Z" stroke="#00305F" stroke-width="3.17729" stroke-miterlimit="10" stroke-linecap="round" stroke-linejoin="round"/>
<path d="M75.2732 29.8149V89.5321C75.2732 93.1721 77.5533 96.5622 81.0597 97.5573C92.9523 100.943 94.7055 114 109.82 114C122.947 62.467 102.794 30.3749 82.0918 24.5121C78.6631 23.5386 75.2732 26.2567 75.2732 29.8149Z" stroke="#00305F" stroke-width="3.17729" stroke-miterlimit="10" stroke-linecap="round" stroke-linejoin="round"/>
<path d="M40.7263 66.615L57.9995 57.9997V2" stroke="#00305F" stroke-width="3.17729" stroke-miterlimit="10" stroke-linecap="round" stroke-linejoin="round"/>
<path d="M75.2713 66.615L57.9982 57.9997V2" stroke="#00305F" stroke-width="3.17729" stroke-miterlimit="10" stroke-linecap="round" stroke-linejoin="round"/>
<path d="M27.7712 75.23C30.1562 75.23 32.0895 73.3015 32.0895 70.9226C32.0895 68.5437 30.1562 66.6152 27.7712 66.6152C25.3863 66.6152 23.4529 68.5437 23.4529 70.9226C23.4529 73.3015 25.3863 75.23 27.7712 75.23Z" fill="#00305F"/>
<path d="M19.1343 92.4604C21.5192 92.4604 23.4526 90.532 23.4526 88.1531C23.4526 85.7742 21.5192 83.8457 19.1343 83.8457C16.7493 83.8457 14.816 85.7742 14.816 88.1531C14.816 90.532 16.7493 92.4604 19.1343 92.4604Z" fill="#00305F"/>
<path d="M19.1343 62.3071C21.5192 62.3071 23.4526 60.3786 23.4526 57.9998C23.4526 55.6209 21.5192 53.6924 19.1343 53.6924C16.7493 53.6924 14.816 55.6209 14.816 57.9998C14.816 60.3786 16.7493 62.3071 19.1343 62.3071Z" fill="#00305F"/>
<path d="M92.5457 75.23C94.9306 75.23 96.864 73.3015 96.864 70.9226C96.864 68.5437 94.9306 66.6152 92.5457 66.6152C90.1608 66.6152 88.2274 68.5437 88.2274 70.9226C88.2274 73.3015 90.1608 75.23 92.5457 75.23Z" fill="#00305F"/>
<path d="M101.182 96.7681C103.567 96.7681 105.501 94.8396 105.501 92.4607C105.501 90.0818 103.567 88.1533 101.182 88.1533C98.7975 88.1533 96.8641 90.0818 96.8641 92.4607C96.8641 94.8396 98.7975 96.7681 101.182 96.7681Z" fill="#00305F"/>
<path d="M88.2281 53.6909C90.6131 53.6909 92.5464 51.7624 92.5464 49.3835C92.5464 47.0046 90.6131 45.0762 88.2281 45.0762C85.8432 45.0762 83.9099 47.0046 83.9099 49.3835C83.9099 51.7624 85.8432 53.6909 88.2281 53.6909Z" fill="#00305F"/>
</svg>
