<svg width="24" height="31" viewBox="0 0 24 31" fill="none" xmlns="http://www.w3.org/2000/svg">
<path d="M6.44057 21.7562C5.9314 21.247 6.19682 21.3906 4.96872 21.0619C4.41151 20.9125 3.92167 20.6254 3.47871 20.2814L0.820366 26.7993C0.563144 27.4303 1.0436 28.1158 1.72445 28.0901L4.81169 27.9723L6.93509 30.2152C7.40383 30.7097 8.22647 30.5556 8.48369 29.9246L11.5334 22.447C10.8983 22.8009 10.1934 23.0083 9.46453 23.0083C8.32197 23.0083 7.24856 22.5636 6.44057 21.7562ZM23.1793 26.7993L20.521 20.2814C20.078 20.6259 19.5882 20.9125 19.0309 21.0619C17.7964 21.3923 18.0671 21.2482 17.5591 21.7562C16.7511 22.5636 15.6771 23.0083 14.5345 23.0083C13.8057 23.0083 13.1008 22.8003 12.4656 22.447L15.5154 29.9246C15.7726 30.5556 16.5958 30.7097 17.064 30.2152L19.188 27.9723L22.2752 28.0901C22.9561 28.1158 23.4365 27.4297 23.1793 26.7993ZM16.1599 20.4303C17.0552 19.5191 17.1577 19.5977 18.4327 19.2502C19.2466 19.0281 19.8829 18.3807 20.1008 17.5522C20.5391 15.8882 20.4254 16.0891 21.6213 14.8716C22.2172 14.2651 22.4498 13.381 22.2319 12.5525C21.7942 10.8896 21.7936 11.1216 22.2319 9.45703C22.4498 8.62853 22.2172 7.74437 21.6213 7.13794C20.4254 5.92038 20.5391 6.12077 20.1008 4.45733C19.8829 3.62883 19.2466 2.98138 18.4327 2.75931C16.7992 2.31342 16.996 2.43002 15.799 1.21188C15.2031 0.605451 14.3342 0.368151 13.5203 0.590217C11.8873 1.03552 12.1153 1.03611 10.4794 0.590217C9.6655 0.368151 8.79657 0.604865 8.20069 1.21188C7.00481 2.42944 7.20168 2.31342 5.56754 2.75931C4.75369 2.98138 4.11737 3.62883 3.89941 4.45733C3.46172 6.12077 3.5748 5.92038 2.37893 7.13794C1.78304 7.74437 1.54984 8.62853 1.76839 9.45703C2.20608 11.1187 2.20667 10.8867 1.76839 12.5519C1.55043 13.3804 1.78304 14.2646 2.37893 14.8716C3.5748 16.0891 3.46113 15.8882 3.89941 17.5522C4.11737 18.3807 4.75369 19.0281 5.56754 19.2502C6.87884 19.6076 6.97669 19.5514 7.83976 20.4303C8.61494 21.2195 9.82253 21.3607 10.7542 20.7713C11.1267 20.5348 11.5589 20.4092 12.0001 20.4092C12.4414 20.4092 12.8736 20.5348 13.2461 20.7713C14.1771 21.3607 15.3847 21.2195 16.1599 20.4303ZM6.47221 10.8187C6.47221 7.71156 8.94716 5.19266 11.9998 5.19266C15.0525 5.19266 17.5275 7.71156 17.5275 10.8187C17.5275 13.9259 15.0525 16.4448 11.9998 16.4448C8.94716 16.4448 6.47221 13.9259 6.47221 10.8187Z" fill="#BA9F67"/>
</svg>
