<svg width="172" height="61" viewBox="0 0 172 61" fill="none" xmlns="http://www.w3.org/2000/svg">
<path d="M52.617 4.6009V0C44.5177 1.35695 37.0616 5.18042 31.1391 11.1029C30.7221 11.5199 30.3122 11.944 29.9164 12.3821C30.2839 12.8132 30.6444 13.2514 30.9977 13.6967C36.1994 7.95086 43.1254 3.78107 50.9562 2.03542V9.06044C45.7828 10.481 41.0406 13.2161 37.1464 17.1173C36.3407 17.923 35.5916 18.757 34.8848 19.6333C35.1746 20.1775 35.4573 20.7288 35.7258 21.28C39.514 16.3258 44.8287 12.5942 50.9562 10.799V18.0078C45.5425 20.1351 41.1324 24.2837 38.6518 29.5065C38.885 30.4818 39.0829 31.4713 39.2454 32.4678C41.1748 26.7785 45.4718 22.1635 50.9562 19.81V29.2592C50.9562 32.7646 50.412 35.9308 49.3377 38.7436C49.3377 38.7436 48.2069 39.9027 46.751 39.9027C45.7404 39.9027 45.0478 39.4009 44.2492 38.8143C43.3445 38.157 42.3198 37.4008 40.7649 37.4008C39.6695 37.4008 38.8355 37.7754 38.1217 38.2348C37.8673 27.9799 33.754 18.3894 26.4746 11.11C20.5521 5.18042 13.0959 1.35695 4.99667 0V4.6009L0 4.60796C0 4.60796 0.0141349 29.2026 0.0141349 29.2521C0.00706743 35.5562 1.5195 41.1042 4.49488 45.7475C6.87661 49.4649 10.1983 52.5958 14.3681 55.0553C20.7358 58.8151 28.8068 60.4406 28.8068 60.4406C28.8068 60.4406 36.8354 59.1049 43.2315 55.4369C47.4012 53.0481 50.73 49.9314 53.1188 46.1715C56.1012 41.4787 57.6066 35.7895 57.6066 29.2592V4.6009H52.617ZM40.7649 39.0617C41.7756 39.0617 42.4611 39.5705 43.2668 40.1571C44.1714 40.8144 45.1962 41.5635 46.751 41.5635C47.267 41.5635 47.7263 41.4787 48.1433 41.3445C46.2987 44.7156 43.5495 47.479 39.9168 49.6204C35.5138 52.2142 28.8139 53.7619 28.8139 53.7619C28.8139 53.7619 22.114 51.9315 17.7322 49.2529C14.2621 47.1468 11.6047 44.5248 9.76719 41.4222C10.1064 41.507 10.4739 41.5565 10.8768 41.5565C12.4316 41.5565 13.4564 40.8073 14.361 40.1501C15.1596 39.5635 15.8522 39.0546 16.8629 39.0546C17.8735 39.0546 18.5591 39.5635 19.3577 40.1501C20.2623 40.8073 21.2871 41.5565 22.8419 41.5565C24.3968 41.5565 25.4215 40.8073 26.3262 40.1501C27.1248 39.5635 27.8174 39.0546 28.821 39.0546C29.8316 39.0546 30.5172 39.5635 31.3158 40.1501C32.2204 40.8073 33.2452 41.5565 34.8 41.5565C36.3549 41.5565 37.3796 40.8073 38.2772 40.1501C39.0617 39.5705 39.7543 39.0617 40.7649 39.0617ZM6.65752 19.81C13.8875 22.9197 19.0538 29.9518 19.4496 38.2065C18.7428 37.7683 17.923 37.4008 16.8417 37.4008C15.2868 37.4008 14.2621 38.15 13.3645 38.8143C12.5659 39.4009 11.8733 39.9027 10.8626 39.9027C9.67531 39.9027 8.47385 38.8921 8.47385 38.8921C7.26532 36.0227 6.65752 32.807 6.65752 29.2592V19.81ZM21.7959 32.2345C22.2907 29.5772 23.0681 27.0188 24.0858 24.5805C26.2838 28.4252 27.6478 32.8141 27.9234 37.4927C26.8421 37.7118 26.0435 38.2843 25.3297 38.8143C24.531 39.4009 23.8384 39.9027 22.8349 39.9027C22.1776 39.9027 21.6617 39.6907 21.1528 39.3797V39.2454C21.1528 29.6055 15.1384 21.3436 6.66458 18.0078V10.799C13.421 12.785 19.1881 17.1102 23.0115 22.8419C22.0645 24.9339 21.3012 27.1107 20.7288 29.344C21.1457 30.2769 21.4991 31.2451 21.7959 32.2345ZM27.7255 14.9829C26.6159 16.4176 25.6124 17.9159 24.7219 19.4708C25.0964 19.9725 25.4569 20.4814 25.8032 20.9973C26.6937 19.3718 27.6972 17.8241 28.8068 16.347C30.2981 18.3258 31.5985 20.4602 32.6869 22.7076C31.4501 24.6865 30.4465 26.7926 29.6832 28.9977C30.0083 30.0012 30.291 31.026 30.5172 32.0579C31.1815 29.4076 32.1992 26.8986 33.5279 24.5805C35.4149 29.0966 36.4609 34.0509 36.4609 39.2454V39.3797C35.9591 39.6907 35.4361 39.9027 34.7788 39.9027C33.7682 39.9027 33.0826 39.4009 32.284 38.8143C31.5419 38.2701 30.715 37.6694 29.5843 37.4715C29.1531 29.7751 25.9587 22.6016 20.4673 17.1102C16.5731 13.2161 11.8309 10.4739 6.65752 9.05338V2.02835C15.0607 3.90829 22.4249 8.56572 27.7255 14.9829ZM55.9528 29.2521C55.9528 40.5176 51.3943 48.843 42.4116 53.9881C36.7506 57.232 28.8139 58.7657 28.8139 58.7657C28.8139 58.7657 20.863 56.9564 15.2232 53.6276C6.2264 48.3129 1.67498 40.1147 1.68205 29.2521C1.68205 29.2379 1.68205 10.3891 1.68205 6.26881L4.99667 6.26174V29.2521C4.99667 34.4184 6.24761 38.9981 8.70707 42.8639C10.6789 45.9524 13.421 48.5815 16.8558 50.6805C21.9726 53.8043 28.8068 55.444 28.8068 55.444C28.8068 55.444 35.5986 54.1012 40.7508 51.0551C44.1926 49.0267 46.9348 46.4118 48.9066 43.2739C51.3661 39.3656 52.6099 34.6516 52.6099 29.2592V6.26881H55.9387V29.2521H55.9528Z" fill="#BA9F67"/>
<path d="M73.1905 15.8452L77.3391 20.4956H79.2332L74.7029 15.6756L78.8798 11.3715H77.1271L73.1976 15.5625V11.3715H71.876V20.4956H73.1976V15.8452H73.1905ZM83.8341 15.1456V12.5235H86.8872V20.4956H88.1947V11.3715H82.5266V15.0607C82.5266 17.4142 82.2509 19.5132 81.1343 19.5132C80.8163 19.5132 80.5618 19.4567 80.3003 19.386V20.4956C80.576 20.5945 80.9293 20.6511 81.3605 20.6511C83.5302 20.6511 83.8341 18.0291 83.8341 15.1456ZM98.2092 20.4956V11.3715H96.8593L92.3503 18.4884H92.322V11.3715H91.0004V20.4956H92.3503L96.8593 13.4352H96.9017V20.4956H98.2092ZM102.315 16.3046H106.733V20.4956H108.04V11.3715H106.733V15.188H102.315V11.3715H101.008V20.4956H102.315V16.3046ZM116.676 13.4352H116.719V20.4956H118.026V11.3715H116.676L112.189 18.4884H112.146V11.3715H110.839V20.4956H112.189L116.676 13.4352ZM123.836 16.8629C124.472 16.8629 125.2 16.764 125.8 16.6014V20.4956H127.108V11.3715H125.8V15.5625C125.2 15.718 124.507 15.824 123.836 15.824C122.062 15.824 121.857 15.0607 121.857 13.4282V11.3786H120.549V13.6049C120.549 15.9866 121.468 16.8629 123.836 16.8629ZM135.158 19.3648H131.271V16.3187H134.755V15.2162H131.271V12.4953H135.045V11.3786H129.963V20.4956H135.158V19.3648ZM141.801 19.3931C139.773 19.3931 138.239 17.9867 138.239 15.8806C138.239 13.8875 139.603 12.467 141.681 12.467C142.395 12.467 142.904 12.5659 143.589 12.9688L143.702 11.7178C143.024 11.414 142.522 11.315 141.709 11.315C138.882 11.315 136.833 13.0819 136.833 15.8806C136.833 18.856 138.911 20.5733 141.78 20.5733C142.579 20.5733 143.144 20.4885 143.787 20.2553L143.702 18.9902C143.087 19.2447 142.571 19.3931 141.801 19.3931ZM152.777 11.3715H151.024L147.095 15.5625V11.3715H145.773V20.4956H147.095V15.8452L151.257 20.4956H153.151L148.593 15.6756L152.777 11.3715ZM156.176 18.4884H156.134V11.3715H154.833V20.4956H156.183L160.671 13.4352H160.714V20.4956H162.021V11.3715H160.671L156.176 18.4884ZM168.41 10.6507C169.244 10.6507 169.972 10.2761 170.431 9.60469L169.859 9.03223C169.385 9.53401 168.855 9.68243 168.41 9.68243C167.979 9.68243 167.435 9.54108 166.961 9.03223L166.389 9.60469C166.848 10.2832 167.583 10.6507 168.41 10.6507ZM170.664 11.3715L166.155 18.4884H166.113V11.3715H164.806V20.4956H166.155L170.664 13.4352H170.693V20.4956H172V11.3715H170.664ZM73.1905 26.0506H77.0917V24.8986H71.8689V34.0227H73.1905V26.0506ZM86.5197 29.4924C86.5197 26.6231 84.8659 24.7431 82.1167 24.7431C79.318 24.7431 77.7278 26.7715 77.7278 29.4924C77.7278 32.2063 79.3957 34.2135 82.1449 34.2135C84.979 34.2135 86.5197 32.2346 86.5197 29.4924ZM82.1237 33.1816C80.1166 33.1816 79.0918 31.3582 79.0918 29.4642C79.0918 27.5136 80.1661 25.8174 82.0884 25.8174C84.1521 25.8174 85.1133 27.556 85.1133 29.5207C85.1203 31.4996 84.0461 33.1816 82.1237 33.1816ZM103.234 34.0297H104.542V24.8986H97.5095V34.0227H98.817V26.0506H103.234V34.0297ZM107.39 24.8986V34.0227H108.74L113.249 26.9623H113.291V34.0227H114.599V24.8986H113.249L108.74 32.0155H108.711V24.8986H107.39ZM120.634 34.0297V26.0506H123.504V24.8986H116.443V26.0506H119.327V34.0297H120.634ZM126.917 24.8986L123.044 34.0227H124.436L125.383 31.7257H129.815L130.762 34.0227H132.225L128.281 24.8986H126.917ZM125.815 30.6727L127.581 26.0223L129.377 30.6727H125.815ZM146.402 28.4111H144.798V24.8986H143.49V34.0227H146.331C148.558 34.0227 149.702 33.0332 149.702 31.1533C149.702 29.1744 148.282 28.4111 146.402 28.4111ZM146.133 32.8777H144.798V29.5631H146.19C147.455 29.5631 148.331 30.0084 148.331 31.1674C148.324 32.4325 147.391 32.8777 146.133 32.8777ZM79.5017 43.2527H73.6216V38.1712H71.8689V50.3201H73.6216V44.751H79.5017V50.3201H81.2403V38.1712H79.5017V43.2527ZM88.6964 38.1712L83.5302 50.3201H85.396L86.6398 47.2458H92.534L93.8133 50.3201H95.7639L90.4986 38.1712H88.6964ZM87.2194 45.8465L89.5728 39.6766L91.9545 45.8465H87.2194ZM102.648 41.9594C102.648 43.8534 103.778 44.9277 104.902 45.3023L104.012 46.8218C103.135 48.3271 102.676 48.6734 101.545 48.9985L101.863 50.4686C103.602 50.3201 104.443 49.5498 105.361 47.896L106.634 45.5991C106.923 45.6132 107.369 45.6274 107.694 45.6274H109.446V50.2636H111.171V38.143H106.81C104.393 38.143 102.648 39.6201 102.648 41.9594ZM109.446 39.5211V44.228H107.468C105.616 44.228 104.45 43.5778 104.45 41.9594C104.45 40.4257 105.397 39.5211 107.135 39.5211H109.446ZM119.044 45.1892H118.987L115.284 38.1712H113.15L118.026 47.1539C117.539 48.4331 116.924 48.8572 116.16 48.8572C115.899 48.8572 115.489 48.8006 115.284 48.6876L115.171 50.2495C115.616 50.3767 115.948 50.4191 116.38 50.4191C117.814 50.4191 118.634 49.4579 119.207 48.3695L124.359 38.1712H122.408L119.044 45.1892ZM129.786 43.8817V43.8534C131.334 43.5495 132.069 42.3481 132.069 40.9275C132.069 38.8497 130.295 38.0158 128.324 38.0158C127.603 38.0158 126.415 38.2348 125.567 38.5105L125.793 40.0441C126.528 39.7473 127.56 39.4858 128.246 39.4858C129.468 39.4858 130.288 39.8745 130.288 41.1396C130.288 42.6732 128.953 43.3234 127.532 43.3234H127.087V44.7298H127.617C129.299 44.7298 130.557 45.1609 130.557 46.8783C130.557 48.3413 129.412 49.0197 128.005 49.0197C127.376 49.0197 126.041 48.7653 125.306 48.3907L125.136 50.0162C126.111 50.3413 127.087 50.518 127.977 50.518C130.415 50.518 132.408 49.2812 132.408 46.9278C132.416 45.2457 131.469 44.2422 129.786 43.8817ZM136.402 44.7722H141.052V43.2881H136.402V39.6766H141.427V38.1712H134.67V50.3201H141.589V48.8007H136.402V44.7722ZM93.1136 32.9343C91.0923 32.9343 89.5516 31.5279 89.5516 29.4218C89.5516 27.4217 90.9156 26.0082 92.9934 26.0082C93.7143 26.0082 94.2161 26.1142 94.9016 26.51L95.0147 25.259C94.3433 24.9551 93.8345 24.8562 93.0217 24.8562C90.1947 24.8562 88.1452 26.6231 88.1452 29.4218C88.1452 32.3901 90.223 34.1145 93.0924 34.1145C93.8981 34.1145 94.4564 34.0297 95.0995 33.7965L95.0147 32.5314C94.4069 32.7929 93.891 32.9343 93.1136 32.9343ZM136.592 28.6726V26.0435H139.646V34.0227H140.953V24.8986H135.285V28.5878C135.285 30.9413 135.009 33.0403 133.893 33.0403C133.575 33.0403 133.32 32.9837 133.059 32.9131V34.0297C133.334 34.1287 133.688 34.1852 134.119 34.1852C136.289 34.1852 136.592 31.5561 136.592 28.6726Z" fill="#00305F"/>
</svg>
