<svg width="50" height="49" viewBox="0 0 50 49" fill="none" xmlns="http://www.w3.org/2000/svg">
<ellipse cx="25" cy="24.535" rx="25" ry="24.2293" fill="#BA9F67"/>
<mask id="mask0_1_4002" style="mask-type:alpha" maskUnits="userSpaceOnUse" x="0" y="0" width="50" height="49">
<ellipse cx="25" cy="24.535" rx="25" ry="24.2293" fill="#C0A35F"/>
</mask>
<g mask="url(#mask0_1_4002)">
<path d="M53.0669 10.9107V5.63574C43.436 7.1915 34.5699 11.5752 27.5275 18.3654C27.0317 18.8434 26.5442 19.3296 26.0736 19.832C26.5106 20.3263 26.9392 20.8286 27.3594 21.3391C33.5447 14.7515 41.7805 9.97078 51.0919 7.96937V16.0236C44.9403 17.6523 39.3013 20.7881 34.6708 25.2609C33.7127 26.1846 32.8219 27.1408 31.9815 28.1455C32.3261 28.7695 32.6622 29.4015 32.9816 30.0335C37.4861 24.3534 43.8058 20.0751 51.0919 18.0169V26.2819C44.6546 28.7208 39.4106 33.4772 36.4608 39.4653C36.7381 40.5835 36.9734 41.7179 37.1667 42.8604C39.461 36.3376 44.5705 31.0464 51.0919 28.3481V39.1817C51.0919 43.2007 50.4448 46.8308 49.1675 50.0557C49.1675 50.0557 47.8228 51.3846 46.0916 51.3846C44.8899 51.3846 44.0663 50.8093 43.1167 50.1368C42.041 49.3832 40.8224 48.5162 38.9736 48.5162C37.671 48.5162 36.6793 48.9456 35.8305 49.4723C35.528 37.715 30.6369 26.7194 21.9809 18.3735C14.9385 11.5752 6.07238 7.1915 -3.55846 5.63574V10.9107L-9.5 10.9188C-9.5 10.9188 -9.48319 39.1168 -9.48319 39.1736C-9.4916 46.4013 -7.69317 52.7621 -4.15513 58.0857C-1.32303 62.3478 2.62679 65.9374 7.58508 68.7572C15.157 73.0679 24.7542 74.9316 24.7542 74.9316C24.7542 74.9316 34.301 73.4001 41.9065 69.1947C46.8648 66.456 50.823 62.8826 53.6635 58.5719C57.21 53.1915 59 46.6687 59 39.1817V10.9107H53.0669ZM38.9736 50.4204C40.1753 50.4204 40.9905 51.0038 41.9485 51.6763C43.0242 52.4299 44.2428 53.2888 46.0916 53.2888C46.7051 53.2888 47.2514 53.1915 47.7472 53.0376C45.5538 56.9027 42.2847 60.0709 37.9651 62.5261C32.7295 65.4998 24.7626 67.2743 24.7626 67.2743C24.7626 67.2743 16.7957 65.1757 11.5853 62.1047C7.45902 59.6901 4.29916 56.6839 2.11416 53.1267C2.51754 53.224 2.95455 53.2807 3.43357 53.2807C5.28242 53.2807 6.50098 52.4218 7.57668 51.6682C8.52631 50.9957 9.3499 50.4123 10.5516 50.4123C11.7534 50.4123 12.5686 50.9957 13.5182 51.6682C14.5939 52.4218 15.8125 53.2807 17.6613 53.2807C19.5102 53.2807 20.7287 52.4218 21.8044 51.6682C22.7541 50.9957 23.5777 50.4123 24.771 50.4123C25.9728 50.4123 26.7879 50.9957 27.7376 51.6682C28.8133 52.4218 30.0318 53.2807 31.8807 53.2807C33.7295 53.2807 34.9481 52.4218 36.0154 51.6682C36.9482 51.0038 37.7718 50.4204 38.9736 50.4204ZM-1.58355 28.3481C7.01362 31.9134 13.1569 39.9757 13.6275 49.4399C12.7871 48.9375 11.8122 48.5162 10.5264 48.5162C8.67758 48.5162 7.45902 49.3751 6.39173 50.1368C5.44209 50.8093 4.61851 51.3846 3.41676 51.3846C2.00491 51.3846 0.576247 50.2259 0.576247 50.2259C-0.860815 46.9361 -1.58355 43.2493 -1.58355 39.1817V28.3481ZM16.4176 42.593C17.0058 39.5463 17.9303 36.6131 19.1404 33.8176C21.754 38.2255 23.376 43.2574 23.7037 48.6215C22.4179 48.8727 21.4683 49.529 20.6195 50.1368C19.6699 50.8093 18.8463 51.3846 17.6529 51.3846C16.8714 51.3846 16.2579 51.1415 15.6528 50.785V50.631C15.6528 39.5787 8.5011 30.1064 -1.57514 26.2819V18.0169C6.45896 20.2939 13.3165 25.2528 17.863 31.8242C16.7369 34.2227 15.8293 36.7184 15.1486 39.2789C15.6444 40.3485 16.0646 41.4586 16.4176 42.593ZM23.4684 22.8138C22.149 24.4587 20.9556 26.1765 19.8968 27.9592C20.3422 28.5345 20.7708 29.1179 21.1826 29.7094C22.2414 27.8457 23.4348 26.0712 24.7542 24.3777C26.5274 26.6465 28.0737 29.0936 29.3679 31.6703C27.8973 33.9391 26.7039 36.3538 25.7963 38.8819C26.1829 40.0325 26.519 41.2074 26.7879 42.3904C27.5779 39.3518 28.7881 36.4753 30.368 33.8176C32.6118 38.9953 33.8556 44.6754 33.8556 50.631V50.785C33.2589 51.1415 32.637 51.3846 31.8555 51.3846C30.6537 51.3846 29.8385 50.8093 28.8889 50.1368C28.0065 49.5128 27.0232 48.8241 25.6786 48.5972C25.166 39.7732 21.3674 31.5487 14.8376 25.2528C10.2071 20.7881 4.56809 17.6442 -1.58355 16.0155V7.96127C8.40866 10.1166 17.1655 15.4564 23.4684 22.8138ZM57.0335 39.1736C57.0335 52.0896 51.613 61.6347 40.9317 67.5336C34.2002 71.2529 24.7626 73.0112 24.7626 73.0112C24.7626 73.0112 15.3082 70.9368 8.60195 67.1204C-2.09618 61.027 -7.50828 51.6277 -7.49988 39.1736C-7.49988 39.1574 -7.49988 17.547 -7.49988 12.823L-3.55846 12.8149V39.1736C-3.55846 45.0968 -2.07097 50.3474 0.853576 54.7797C3.19826 58.3207 6.45896 61.3349 10.5432 63.7415C16.6277 67.323 24.7542 69.2028 24.7542 69.2028C24.7542 69.2028 32.8303 67.6633 38.9568 64.1709C43.0494 61.8454 46.3101 58.8474 48.6548 55.2497C51.5794 50.7688 53.0585 45.3642 53.0585 39.1817V12.823H57.0167V39.1736H57.0335Z" fill="white"/>
</g>
</svg>
